<?xml version="1.0" encoding="UTF-8"?> <!-- Generator: Adobe Illustrator 24.3.0, SVG Export Plug-In . SVG Version: 6.00 Build 0) --> <svg xmlns="http://www.w3.org/2000/svg" xmlns:xlink="http://www.w3.org/1999/xlink" version="1.1" id="Layer_1" x="0px" y="0px" viewBox="0 0 100.873 23.147" style="enable-background:new 0 0 100.873 23.147;" xml:space="preserve"> <style type="text/css"> .st0{fill:#AAAAAA;} </style> <path class="st0" d="M23.473,15.274l1.4-1.3c0.4,0.4,0.9,0.7,1.7,0.7c0.5,0,0.7-0.1,0.7-0.4c0-0.9-3.5-0.5-3.5-3.3 c0-1.5,1.3-2.4,3-2.4c1.5,0,2.3,0.7,2.8,1.3l-1.7,1.2c-0.2-0.2-0.7-0.6-1.3-0.6c-0.4,0-0.6,0.1-0.6,0.4c0,1,3.6,0.4,3.6,3.2 c0,1.6-1.4,2.5-3.2,2.5C24.973,16.574,23.873,15.874,23.473,15.274z"></path> <path class="st0" d="M32.973,11.474c0.7,0,1.2,0.2,1.5,0.3v-0.3c0-0.5-0.4-0.8-1.2-0.8c-0.7,0-1.3,0.2-1.9,0.5l-0.9-1.6 c0.8-0.5,1.9-1,3.2-1c2.7,0,3.3,1.4,3.3,3.1v4.8h-2.2l-0.1-0.4c-0.4,0.4-1,0.6-1.8,0.6c-1.5,0-2.9-0.9-2.9-2.6 C29.973,12.474,31.073,11.474,32.973,11.474z M33.473,14.774c0.6,0,1-0.3,1-0.8s-0.5-0.8-1-0.8c-0.6,0-1,0.3-1,0.8 C32.373,14.474,32.873,14.774,33.473,14.774z"></path> <path class="st0" d="M44.873,16.474h-2.5v-4.6c0-0.7-0.3-1.1-0.9-1.1c-0.6,0-0.9,0.4-0.9,1.1v4.6h-2.5v-7.8h2.4v0.8 c0.3-0.5,0.9-1,1.9-1c0.9,0,1.6,0.4,2,1c0.5-0.6,1.2-1,2.2-1c1.8,0,2.6,1.1,2.6,2.8v5.1h-2.5v-4.6c0-0.7-0.4-1.1-0.9-1.1 c-0.6,0-0.9,0.4-0.9,1.1C44.873,11.774,44.873,16.474,44.873,16.474z"></path> <path class="st0" d="M52.673,9.274c0.2-0.3,1-0.8,2.1-0.8c2.2,0,3.8,1.7,3.8,4c0,2.4-1.4,4.1-3.7,4.1c-1.2,0-1.9-0.6-2.1-0.8v3.3 h-2.5v-10.4h2.3v0.6H52.673z M54.473,14.474c1,0,1.7-0.8,1.7-1.9s-0.7-1.9-1.7-1.9c-1.1,0-1.7,0.9-1.7,1.9 C52.773,13.774,53.473,14.474,54.473,14.474z"></path> <path class="st0" d="M59.473,5.774h2.4v10.6h-2.5v-10.6H59.473z"></path> <path class="st0" d="M65.273,13.174c0.1,0.7,0.7,1.3,1.6,1.3s1.5-0.6,1.6-0.8l1.6,1.3c-0.2,0.5-1.3,1.7-3.3,1.7 c-2.5,0-4.1-1.8-4.1-4c0-2.3,1.5-4.1,3.8-4.1c2.5,0,3.8,1.6,3.8,4.2c0,0.1,0,0.3,0,0.5h-5V13.174z M65.373,11.674h2.5 c0-0.6-0.5-1.1-1.3-1.1C65.773,10.474,65.473,11.074,65.373,11.674z"></path> <path class="st0" d="M71.273,5.774h2.5v10.6h-2.5V5.774z"></path> <path class="st0" d="M78.773,8.474c2.5,0,4.2,1.7,4.2,4s-1.8,4.1-4.2,4.1c-2.5,0-4.2-1.7-4.2-4 C74.573,10.274,76.373,8.474,78.773,8.474z M78.773,14.474c1,0,1.8-0.8,1.8-1.9s-0.8-1.9-1.8-1.9s-1.7,0.8-1.7,1.9 C76.973,13.674,77.773,14.474,78.773,14.474z"></path> <path class="st0" d="M89.173,15.874c-0.2,0.2-0.9,0.8-2.1,0.8c-2.2,0-3.7-1.7-3.7-4.1s1.6-4,3.8-4c1.1,0,1.9,0.5,2.1,0.8v-0.7h2.3 v6.8c0,2.9-2,3.8-4.3,3.8c-1.1,0-2.2-0.3-2.9-0.7l0.7-1.9c0.2,0.1,1.1,0.5,2.1,0.5c0.9,0,1.8-0.2,1.8-1.1v-0.2H89.173z M87.573,10.674c-1,0-1.6,0.7-1.6,1.9c0,1.1,0.7,1.9,1.7,1.9s1.7-0.7,1.7-1.9C89.273,11.474,88.673,10.674,87.573,10.674z"></path> <path class="st0" d="M96.673,8.474c2.5,0,4.2,1.7,4.2,4s-1.8,4.1-4.2,4.1c-2.5,0-4.2-1.7-4.2-4S94.273,8.474,96.673,8.474z M96.673,14.474c1,0,1.8-0.8,1.8-1.9s-0.8-1.9-1.8-1.9s-1.7,0.8-1.7,1.9C94.873,13.674,95.673,14.474,96.673,14.474z"></path> <g> <polygon class="st0" points="17.782,18.001 17.782,14.57 10.182,10.295 2.964,14.568 0,16.229 0,12.815 0,9.402 0,5.989 2.964,4.277 10.182,0 17.782,4.277 20.746,5.993 20.746,9.424 17.782,7.708 10.182,3.432 2.964,7.708 2.964,11.138 10.182,6.863 17.782,11.139 20.746,12.855 20.746,16.285 20.746,19.716 20.746,23.147 17.782,21.432 10.182,17.158 0,19.642 10.182,13.727 "></polygon> </g> </svg> 