<?xml version="1.0" encoding="UTF-8"?> <!-- Generator: Adobe Illustrator 24.3.0, SVG Export Plug-In . SVG Version: 6.00 Build 0) --> <svg xmlns="http://www.w3.org/2000/svg" xmlns:xlink="http://www.w3.org/1999/xlink" version="1.1" id="Layer_1" x="0px" y="0px" viewBox="0 0 374.404 286" style="enable-background:new 0 0 374.404 286;" xml:space="preserve"> <style type="text/css"> .st0{fill:#FFFFFF;} .st1{opacity:0.06;fill:#06D6A0;enable-background:new ;} .st2{opacity:0.08;fill:#118AB2;enable-background:new ;} </style> <path class="st0" d="M362.78,286H11.624C5.231,286,0,280.769,0,274.376V11.624C0,5.231,5.231,0,11.624,0H362.78 c6.393,0,11.624,5.231,11.624,11.624v262.751C374.404,280.769,369.173,286,362.78,286z"></path> <g> <path class="st1" d="M91.154,140.803c-29.749,0-53.952-24.203-53.952-53.952S61.405,32.9,91.154,32.9s53.952,24.203,53.952,53.952 S120.903,140.803,91.154,140.803z M91.154,45.994c-22.529,0-40.858,18.329-40.858,40.858s18.329,40.858,40.858,40.858 s40.858-18.329,40.858-40.858S113.683,45.994,91.154,45.994z"></path> <circle class="st2" cx="117.754" cy="60.252" r="6.65"></circle> <circle class="st2" cx="144.353" cy="60.252" r="6.65"></circle> <circle class="st2" cx="170.953" cy="60.252" r="6.65"></circle> <circle class="st2" cx="197.553" cy="60.252" r="6.65"></circle> <circle class="st2" cx="224.153" cy="60.252" r="6.65"></circle> <circle class="st2" cx="250.753" cy="60.252" r="6.65"></circle> <circle class="st2" cx="277.352" cy="60.252" r="6.65"></circle> <circle class="st2" cx="303.952" cy="60.252" r="6.65"></circle> <circle class="st2" cx="330.552" cy="60.252" r="6.65"></circle> <circle class="st2" cx="91.154" cy="86.852" r="6.65"></circle> <circle class="st2" cx="117.754" cy="86.852" r="6.65"></circle> <circle class="st2" cx="144.353" cy="86.852" r="6.65"></circle> <circle class="st2" cx="170.953" cy="86.852" r="6.65"></circle> <circle class="st2" cx="197.553" cy="86.852" r="6.65"></circle> <circle class="st2" cx="224.153" cy="86.852" r="6.65"></circle> <circle class="st2" cx="250.753" cy="86.852" r="6.65"></circle> <circle class="st2" cx="277.352" cy="86.852" r="6.65"></circle> <circle class="st2" cx="303.952" cy="86.852" r="6.65"></circle> <circle class="st2" cx="330.552" cy="86.852" r="6.65"></circle> <circle class="st2" cx="64.554" cy="113.452" r="6.65"></circle> <circle class="st2" cx="91.154" cy="113.452" r="6.65"></circle> <circle class="st2" cx="117.754" cy="113.452" r="6.65"></circle> <circle class="st2" cx="144.353" cy="113.452" r="6.65"></circle> <circle class="st2" cx="170.953" cy="113.452" r="6.65"></circle> <circle class="st2" cx="197.553" cy="113.452" r="6.65"></circle> <circle class="st2" cx="224.153" cy="113.452" r="6.65"></circle> <circle class="st2" cx="250.753" cy="113.452" r="6.65"></circle> <circle class="st2" cx="277.352" cy="113.452" r="6.65"></circle> <circle class="st2" cx="303.952" cy="113.452" r="6.65"></circle> <circle class="st2" cx="330.552" cy="113.452" r="6.65"></circle> <circle class="st2" cx="64.554" cy="140.051" r="6.65"></circle> <circle class="st2" cx="91.154" cy="140.051" r="6.65"></circle> <circle class="st2" cx="117.754" cy="140.051" r="6.65"></circle> <circle class="st2" cx="144.353" cy="140.051" r="6.65"></circle> <circle class="st2" cx="170.953" cy="140.051" r="6.65"></circle> <circle class="st2" cx="197.553" cy="140.051" r="6.65"></circle> <circle class="st2" cx="224.153" cy="140.051" r="6.65"></circle> <circle class="st2" cx="250.753" cy="140.051" r="6.65"></circle> <circle class="st2" cx="277.352" cy="140.051" r="6.65"></circle> <circle class="st2" cx="303.952" cy="140.051" r="6.65"></circle> <circle class="st2" cx="330.552" cy="140.051" r="6.65"></circle> <circle class="st2" cx="64.554" cy="166.651" r="6.65"></circle> <circle class="st2" cx="91.154" cy="166.651" r="6.65"></circle> <circle class="st2" cx="117.754" cy="166.651" r="6.65"></circle> <circle class="st2" cx="144.353" cy="166.651" r="6.65"></circle> <circle class="st2" cx="170.953" cy="166.651" r="6.65"></circle> <circle class="st2" cx="197.553" cy="166.651" r="6.65"></circle> <circle class="st2" cx="224.153" cy="166.651" r="6.65"></circle> <circle class="st2" cx="250.753" cy="166.651" r="6.65"></circle> <circle class="st2" cx="277.352" cy="166.651" r="6.65"></circle> <circle class="st2" cx="303.952" cy="166.651" r="6.65"></circle> <circle class="st2" cx="330.552" cy="166.651" r="6.65"></circle> <circle class="st2" cx="64.554" cy="193.251" r="6.65"></circle> <circle class="st2" cx="91.154" cy="193.251" r="6.65"></circle> <circle class="st2" cx="117.754" cy="193.251" r="6.65"></circle> <circle class="st2" cx="144.353" cy="193.251" r="6.65"></circle> <circle class="st2" cx="170.953" cy="193.251" r="6.65"></circle> <circle class="st2" cx="197.553" cy="193.251" r="6.65"></circle> <circle class="st2" cx="224.153" cy="193.251" r="6.65"></circle> <circle class="st2" cx="250.753" cy="193.251" r="6.65"></circle> <circle class="st2" cx="277.352" cy="193.251" r="6.65"></circle> <circle class="st2" cx="303.952" cy="193.251" r="6.65"></circle> <circle class="st2" cx="330.552" cy="193.251" r="6.65"></circle> <circle class="st2" cx="64.554" cy="219.851" r="6.65"></circle> <circle class="st2" cx="91.154" cy="219.851" r="6.65"></circle> <circle class="st2" cx="117.754" cy="219.851" r="6.65"></circle> <circle class="st2" cx="144.353" cy="219.851" r="6.65"></circle> <circle class="st2" cx="170.953" cy="219.851" r="6.65"></circle> <circle class="st2" cx="197.553" cy="219.851" r="6.65"></circle> <circle class="st2" cx="224.153" cy="219.851" r="6.65"></circle> <circle class="st2" cx="250.753" cy="219.851" r="6.65"></circle> <circle class="st2" cx="277.352" cy="219.851" r="6.65"></circle> <circle class="st2" cx="303.952" cy="219.851" r="6.65"></circle> <circle class="st2" cx="330.552" cy="219.851" r="6.65"></circle> <circle class="st2" cx="64.554" cy="246.451" r="6.65"></circle> <circle class="st2" cx="91.154" cy="246.451" r="6.65"></circle> <circle class="st2" cx="117.754" cy="246.451" r="6.65"></circle> <circle class="st2" cx="144.353" cy="246.451" r="6.65"></circle> <circle class="st2" cx="170.953" cy="246.451" r="6.65"></circle> <circle class="st2" cx="197.553" cy="246.451" r="6.65"></circle> <circle class="st2" cx="224.153" cy="246.451" r="6.65"></circle> <circle class="st2" cx="250.753" cy="246.451" r="6.65"></circle> <circle class="st2" cx="277.352" cy="246.451" r="6.65"></circle> <circle class="st2" cx="303.952" cy="246.451" r="6.65"></circle> <circle class="st2" cx="330.552" cy="246.451" r="6.65"></circle> </g> </svg> 