<?xml version="1.0" encoding="UTF-8"?> <!-- Generator: Adobe Illustrator 24.3.0, SVG Export Plug-In . SVG Version: 6.00 Build 0) --> <svg xmlns="http://www.w3.org/2000/svg" xmlns:xlink="http://www.w3.org/1999/xlink" version="1.1" id="Layer_1" x="0px" y="0px" viewBox="0 0 375.373 286.969" style="enable-background:new 0 0 375.373 286.969;" xml:space="preserve"> <style type="text/css"> .st0{fill:#FFFFFF;} .st1{opacity:0.06;fill:#118AB2;enable-background:new ;} .st2{opacity:0.1;fill:#06D6A0;enable-background:new ;} </style> <path class="st0" d="M363.264,286.484H12.109c-6.393,0-11.624-5.231-11.624-11.624V12.109c0-6.393,5.231-11.624,11.624-11.624 h351.156c6.393,0,11.624,5.231,11.624,11.624V274.86C374.889,281.253,369.658,286.484,363.264,286.484z"></path> <g> <path class="st1" d="M223.883,152.154h113.803l-56.902,99.096L223.883,152.154L223.883,152.154z M306.814,169.893h-50.848 l25.424,44.654L306.814,169.893L306.814,169.893z"></path> <ellipse class="st2" cx="254.504" cy="228.259" rx="6.57" ry="6.639"></ellipse> <ellipse class="st2" cx="228.223" cy="228.259" rx="6.57" ry="6.639"></ellipse> <ellipse class="st2" cx="201.942" cy="228.259" rx="6.57" ry="6.639"></ellipse> <ellipse class="st2" cx="175.661" cy="228.259" rx="6.57" ry="6.639"></ellipse> <ellipse class="st2" cx="149.38" cy="228.259" rx="6.57" ry="6.639"></ellipse> <ellipse class="st2" cx="123.099" cy="228.259" rx="6.57" ry="6.639"></ellipse> <ellipse class="st2" cx="96.818" cy="228.259" rx="6.57" ry="6.639"></ellipse> <ellipse class="st2" cx="70.537" cy="228.259" rx="6.57" ry="6.639"></ellipse> <ellipse class="st2" cx="44.256" cy="228.259" rx="6.57" ry="6.639"></ellipse> <ellipse class="st2" cx="280.784" cy="201.702" rx="6.57" ry="6.639"></ellipse> <ellipse class="st2" cx="254.504" cy="201.702" rx="6.57" ry="6.639"></ellipse> <ellipse class="st2" cx="228.223" cy="201.702" rx="6.57" ry="6.639"></ellipse> <ellipse class="st2" cx="201.942" cy="201.702" rx="6.57" ry="6.639"></ellipse> <ellipse class="st2" cx="175.661" cy="201.702" rx="6.57" ry="6.639"></ellipse> <ellipse class="st2" cx="149.38" cy="201.702" rx="6.57" ry="6.639"></ellipse> <ellipse class="st2" cx="123.099" cy="201.702" rx="6.57" ry="6.639"></ellipse> <ellipse class="st2" cx="96.818" cy="201.702" rx="6.57" ry="6.639"></ellipse> <ellipse class="st2" cx="70.537" cy="201.702" rx="6.57" ry="6.639"></ellipse> <ellipse class="st2" cx="44.256" cy="201.702" rx="6.57" ry="6.639"></ellipse> <ellipse class="st2" cx="307.065" cy="175.144" rx="6.57" ry="6.639"></ellipse> <ellipse class="st2" cx="280.784" cy="175.144" rx="6.57" ry="6.639"></ellipse> <ellipse class="st2" cx="254.504" cy="175.144" rx="6.57" ry="6.639"></ellipse> <ellipse class="st2" cx="228.223" cy="175.144" rx="6.57" ry="6.639"></ellipse> <ellipse class="st2" cx="201.942" cy="175.144" rx="6.57" ry="6.639"></ellipse> <ellipse class="st2" cx="175.661" cy="175.144" rx="6.57" ry="6.639"></ellipse> <ellipse class="st2" cx="149.38" cy="175.144" rx="6.57" ry="6.639"></ellipse> <ellipse class="st2" cx="123.099" cy="175.144" rx="6.57" ry="6.639"></ellipse> <ellipse class="st2" cx="96.818" cy="175.144" rx="6.57" ry="6.639"></ellipse> <ellipse class="st2" cx="70.537" cy="175.144" rx="6.57" ry="6.639"></ellipse> <ellipse class="st2" cx="44.256" cy="175.144" rx="6.57" ry="6.639"></ellipse> <ellipse class="st2" cx="307.065" cy="148.587" rx="6.57" ry="6.639"></ellipse> <ellipse class="st2" cx="280.784" cy="148.587" rx="6.57" ry="6.639"></ellipse> <ellipse class="st2" cx="254.504" cy="148.587" rx="6.57" ry="6.639"></ellipse> <ellipse class="st2" cx="228.223" cy="148.587" rx="6.57" ry="6.639"></ellipse> <ellipse class="st2" cx="201.942" cy="148.587" rx="6.57" ry="6.639"></ellipse> <ellipse class="st2" cx="175.661" cy="148.587" rx="6.57" ry="6.639"></ellipse> <ellipse class="st2" cx="149.38" cy="148.587" rx="6.57" ry="6.639"></ellipse> <ellipse class="st2" cx="123.099" cy="148.587" rx="6.57" ry="6.639"></ellipse> <ellipse class="st2" cx="96.818" cy="148.587" rx="6.57" ry="6.639"></ellipse> <ellipse class="st2" cx="70.537" cy="148.587" rx="6.57" ry="6.639"></ellipse> <ellipse class="st2" cx="44.256" cy="148.587" rx="6.57" ry="6.639"></ellipse> <ellipse class="st2" cx="307.065" cy="122.03" rx="6.57" ry="6.639"></ellipse> <ellipse class="st2" cx="280.784" cy="122.03" rx="6.57" ry="6.639"></ellipse> <ellipse class="st2" cx="254.504" cy="122.03" rx="6.57" ry="6.639"></ellipse> <ellipse class="st2" cx="228.223" cy="122.03" rx="6.57" ry="6.639"></ellipse> <ellipse class="st2" cx="201.942" cy="122.03" rx="6.57" ry="6.639"></ellipse> <ellipse class="st2" cx="175.661" cy="122.03" rx="6.57" ry="6.639"></ellipse> <ellipse class="st2" cx="149.38" cy="122.03" rx="6.57" ry="6.639"></ellipse> <ellipse class="st2" cx="123.099" cy="122.03" rx="6.57" ry="6.639"></ellipse> <ellipse class="st2" cx="96.818" cy="122.03" rx="6.57" ry="6.639"></ellipse> <ellipse class="st2" cx="70.537" cy="122.03" rx="6.57" ry="6.639"></ellipse> <ellipse class="st2" cx="44.256" cy="122.03" rx="6.57" ry="6.639"></ellipse> <ellipse class="st2" cx="307.065" cy="95.472" rx="6.57" ry="6.639"></ellipse> <ellipse class="st2" cx="280.784" cy="95.472" rx="6.57" ry="6.639"></ellipse> <ellipse class="st2" cx="254.504" cy="95.472" rx="6.57" ry="6.639"></ellipse> <ellipse class="st2" cx="228.223" cy="95.472" rx="6.57" ry="6.639"></ellipse> <ellipse class="st2" cx="201.942" cy="95.472" rx="6.57" ry="6.639"></ellipse> <ellipse class="st2" cx="175.661" cy="95.472" rx="6.57" ry="6.639"></ellipse> <ellipse class="st2" cx="149.38" cy="95.472" rx="6.57" ry="6.639"></ellipse> <ellipse class="st2" cx="123.099" cy="95.472" rx="6.57" ry="6.639"></ellipse> <ellipse class="st2" cx="96.818" cy="95.472" rx="6.57" ry="6.639"></ellipse> <ellipse class="st2" cx="70.537" cy="95.472" rx="6.57" ry="6.639"></ellipse> <ellipse class="st2" cx="44.256" cy="95.472" rx="6.57" ry="6.639"></ellipse> <ellipse class="st2" cx="307.065" cy="68.915" rx="6.57" ry="6.639"></ellipse> <ellipse class="st2" cx="280.784" cy="68.915" rx="6.57" ry="6.639"></ellipse> <ellipse class="st2" cx="254.504" cy="68.915" rx="6.57" ry="6.639"></ellipse> <ellipse class="st2" cx="228.223" cy="68.915" rx="6.57" ry="6.639"></ellipse> <ellipse class="st2" cx="201.942" cy="68.915" rx="6.57" ry="6.639"></ellipse> <ellipse class="st2" cx="175.661" cy="68.915" rx="6.57" ry="6.639"></ellipse> <ellipse class="st2" cx="149.38" cy="68.915" rx="6.57" ry="6.639"></ellipse> <ellipse class="st2" cx="123.099" cy="68.915" rx="6.57" ry="6.639"></ellipse> <ellipse class="st2" cx="96.818" cy="68.915" rx="6.57" ry="6.639"></ellipse> <ellipse class="st2" cx="70.537" cy="68.915" rx="6.57" ry="6.639"></ellipse> <ellipse class="st2" cx="44.256" cy="68.915" rx="6.57" ry="6.639"></ellipse> <ellipse class="st2" cx="307.065" cy="42.357" rx="6.57" ry="6.639"></ellipse> <ellipse class="st2" cx="280.784" cy="42.357" rx="6.57" ry="6.639"></ellipse> <ellipse class="st2" cx="254.504" cy="42.357" rx="6.57" ry="6.639"></ellipse> <ellipse class="st2" cx="228.223" cy="42.357" rx="6.57" ry="6.639"></ellipse> <ellipse class="st2" cx="201.942" cy="42.357" rx="6.57" ry="6.639"></ellipse> <ellipse class="st2" cx="175.661" cy="42.357" rx="6.57" ry="6.639"></ellipse> <ellipse class="st2" cx="149.38" cy="42.357" rx="6.57" ry="6.639"></ellipse> <ellipse class="st2" cx="123.099" cy="42.357" rx="6.57" ry="6.639"></ellipse> <ellipse class="st2" cx="96.818" cy="42.357" rx="6.57" ry="6.639"></ellipse> <ellipse class="st2" cx="70.537" cy="42.357" rx="6.57" ry="6.639"></ellipse> <ellipse class="st2" cx="44.256" cy="42.357" rx="6.57" ry="6.639"></ellipse> </g> </svg> 