<?xml version="1.0" encoding="UTF-8"?> <!-- Generator: Adobe Illustrator 24.3.0, SVG Export Plug-In . SVG Version: 6.00 Build 0) --> <svg xmlns="http://www.w3.org/2000/svg" xmlns:xlink="http://www.w3.org/1999/xlink" version="1.1" id="Layer_1" x="0px" y="0px" viewBox="0 0 100 22.5" style="enable-background:new 0 0 100 22.5;" xml:space="preserve"> <style type="text/css"> .st0{fill:#EF476F;} </style> <g> <g> <path class="st0" d="M4,5.91c0.38-0.44,1.67-1.38,3.64-1.38c3.87,0,6.58,2.92,6.58,7.05c0,4.18-2.46,7.07-6.35,7.07 c-2.05,0-3.3-1.02-3.59-1.36v5.22H0V4.86h4V5.91z M7.05,14.87c1.74,0,2.89-1.36,2.89-3.33c0-2-1.18-3.28-2.89-3.28 c-1.84,0-2.89,1.49-2.89,3.28C4.15,13.67,5.35,14.87,7.05,14.87z"></path> <path class="st0" d="M22.53,4.52c4.33,0,7.38,2.97,7.38,7.05c0,4.05-3.13,7.07-7.38,7.07c-4.28,0-7.3-2.97-7.3-7.02 C15.23,7.55,18.38,4.52,22.53,4.52z M22.53,14.87c1.77,0,3.1-1.38,3.1-3.3c0-1.97-1.36-3.28-3.1-3.28c-1.77,0-3.02,1.36-3.02,3.33 C19.51,13.57,20.79,14.87,22.53,14.87z"></path> <path class="st0" d="M38.66,8.88c-0.18-0.03-0.38-0.05-0.69-0.05c-2.08,0-2.77,1.51-2.77,3.54v5.94h-4.28V4.86h4.18v1.79 c0.64-1.31,1.9-2.13,3.56-2.13V8.88z"></path> <path class="st0" d="M45.43,4.86h2.28v3.46h-2.28v4.94c0,1.18,0.79,1.46,1.67,1.46c0.23,0,0.44,0,0.72-0.03v3.66 c0,0-0.56,0.15-1.64,0.15c-3.18,0-5.02-1.46-5.02-5.46V8.32h-1.31V4.86h1.31V2.01h4.28V4.86z"></path> <path class="st0" d="M54.78,5.66h2.1v3.46h-2.1v9.39H50.5V9.12h-1.41V5.66h1.41V5.28c0-3.54,2.51-4.74,5.33-4.74 c0.51,0,0.82,0.03,1.31,0.05v3.59c-0.15-0.03-0.38-0.05-0.69-0.05c-1.1,0-1.67,0.44-1.67,1.26V5.66z"></path> <path class="st0" d="M64.63,4.52c4.33,0,7.38,2.97,7.38,7.05c0,4.05-3.13,7.07-7.38,7.07c-4.28,0-7.3-2.97-7.3-7.02 C57.32,7.55,60.48,4.52,64.63,4.52z M64.63,14.87c1.77,0,3.1-1.38,3.1-3.3c0-1.97-1.36-3.28-3.1-3.28c-1.77,0-3.02,1.36-3.02,3.33 C61.6,13.57,62.88,14.87,64.63,14.87z"></path> <path class="st0" d="M73.35,0.38h4.28v17.92h-4.28V0.38z"></path> <path class="st0" d="M79.18,2.33c0-1.36,1.02-2.33,2.38-2.33s2.41,0.97,2.41,2.33c0,1.33-1.05,2.31-2.41,2.31 S79.18,3.66,79.18,2.33z M83.74,18.31h-4.28V5.46h4.28V18.31z"></path> <path class="st0" d="M92.62,4.52c4.33,0,7.38,2.97,7.38,7.05c0,4.05-3.13,7.07-7.38,7.07c-4.28,0-7.3-2.97-7.3-7.02 C85.32,7.55,88.47,4.52,92.62,4.52z M92.62,14.87c1.77,0,3.1-1.38,3.1-3.3c0-1.97-1.36-3.28-3.1-3.28c-1.77,0-3.02,1.36-3.02,3.33 C89.6,13.57,90.88,14.87,92.62,14.87z"></path> </g> </g> </svg> 