<?xml version="1.0" encoding="UTF-8"?> <svg xmlns="http://www.w3.org/2000/svg" viewBox="0 0 50 50"><circle cx="15.361" cy="15.361" r="15.361" opacity=".8" fill="#f2f5fa"></circle><linearGradient id="a" gradientUnits="userSpaceOnUse" x1="2.727" y1="37.81" x2="54.169" y2="19.087"><stop offset="0" stop-color="#192b80"></stop><stop offset="1" stop-color="#482d70"></stop></linearGradient><path d="M8.683 49.107a.893.893 0 01-1.786 0V7.79c0-.493.4-.893.893-.893h41.317c.493 0 .893.4.893.893v41.317a.893.893 0 01-1.786 0V8.683H8.683v40.424zM43.747 11.81c-.739 0-1.34.601-1.34 1.34 0 .739.601 1.34 1.34 1.34.739 0 1.34-.601 1.34-1.34 0-.739-.601-1.34-1.34-1.34zm-3.967 1.34c0-.739-.601-1.34-1.34-1.34s-1.34.601-1.34 1.34c0 .739.601 1.34 1.34 1.34s1.34-.601 1.34-1.34zm-5.307 0c0-.739-.601-1.34-1.34-1.34-.739 0-1.34.601-1.34 1.34 0 .739.601 1.34 1.34 1.34.739 0 1.34-.601 1.34-1.34zM12.257 34.751v-10.72c0-.493.4-.893.893-.893h16.581c.493 0 .893.4.893.893v10.72c0 .493-.4.893-.893.893H13.15a.893.893 0 01-.893-.893zm1.786-.894h14.794v-8.933H14.043v8.933zm29.704-10.72h-9.549a.893.893 0 000 1.786h9.549a.893.893 0 000-1.786zm-21.048-10.88H13.15a.893.893 0 000 1.786h9.549a.893.893 0 000-1.786zm21.048 16.24h-9.549a.893.893 0 000 1.786h9.549a.893.893 0 000-1.786zm0 5.36h-9.549a.893.893 0 000 1.786h9.549a.893.893 0 000-1.786zm0 5.36H13.15a.893.893 0 000 1.786h30.597a.893.893 0 000-1.786zm0 5.36H13.15a.893.893 0 000 1.786h30.597a.893.893 0 000-1.786z" fill="url(#a)"></path></svg> 