<?xml version="1.0" encoding="UTF-8"?> <svg xmlns="http://www.w3.org/2000/svg" viewBox="0 0 88.18 28.98"><path d="M20.03 15.45l1.54-.8V2.56h-1.16l-2.84 3.77h-.32l.18-4.24h12.31l.18 4.24h-.34L26.8 2.57h-1.2v12.06l1.55.82v.41h-7.11l-.01-.41zm11.09-.53V1.52l-1.2-.48V.8l4.32-.8h.47v6.36l.1-.1a5.697 5.697 0 013.7-1.37c1.89 0 2.72 1.07 2.72 3.05v6.98l1.01.55v.38H36.6v-.38l1.01-.55v-7c0-1.1-.48-1.53-1.37-1.53-.54-.01-1.07.16-1.49.49v8.06l.99.55v.36H30.1v-.36l1.02-.57zm14.2-4.12c.12 2.21 1.11 3.92 3.46 3.92 1.14 0 1.94-.53 2.69-.93v.44a5.28 5.28 0 01-4.15 1.93c-3.64 0-5.5-2.03-5.5-5.53 0-3.43 2.04-5.56 5.32-5.56 3.1 0 4.7 1.55 4.7 5.62v.11h-6.52zm-.06-.51l3.21-.2c0-2.74-.47-4.56-1.41-4.56-1.01 0-1.8 2.12-1.8 4.76zM0 21.21c0-5.83 3.86-7.9 8.15-7.9 1.82 0 3.54.3 4.51.69l.08 4.07h-.41l-2.52-3.94c-.51-.2-1.05-.29-1.6-.26-2.29 0-3.45 2.64-3.41 6.97.04 5.17.94 7.53 3.04 7.53.43.01.86-.06 1.26-.21v-5.55l-1.38-.79v-.47h6.69v.5l-1.36.76v5.47c-1.62.57-3.33.87-5.05.86-4.9 0-8-2.26-8-7.73zm13.78-2.72v-.34l4.48-.79.5.04v8.86c0 1.07.51 1.4 1.38 1.4.57.01 1.1-.24 1.46-.69v-7.95l-1.23-.54v-.35l4.48-.79.45.04v10.17l1.21.51v.32l-4.4.54-.45-.04v-1.34h-.12c-.9.88-2.11 1.39-3.37 1.42-2.16 0-3.14-1.27-3.14-3.2v-6.74l-1.25-.53zm28.19-1.15l.37.04v3.29h.1c.48-2.39 1.54-3.29 2.83-3.29.19-.01.38.02.55.08v3.33c-.3-.06-.62-.09-.92-.08-.84-.02-1.68.15-2.45.49v6.49l1.02.57v.45h-5.83v-.44l1.05-.57v-8.86l-1.23-.37v-.3l4.51-.83zm11.28.28v-3.46l-1.23-.43v-.27l4.54-.83.43.06v14.86l1.26.45v.38l-4.48.6-.35-.04v-1.22h-.1a3.98 3.98 0 01-2.99 1.25c-2.45 0-4.23-1.87-4.23-5.68 0-4.03 2.08-6.01 5.22-6.01.65-.03 1.32.08 1.93.34zm0 9.52v-8.9c-.35-.29-.79-.43-1.24-.39-1.22.04-1.97 1.88-1.97 5.14 0 2.94.54 4.58 2.16 4.53.39.01.76-.13 1.05-.38zm9.91-9.8l.39.04v10.31l1.02.57v.45h-5.83v-.44l1.05-.57V19l-1.25-.5v-.35l4.62-.81zm.41-2.78a1.949 1.949 0 01-1.99 1.89c-.71.03-1.37-.33-1.73-.94-.36-.6-.36-1.36 0-1.97.36-.6 1.02-.96 1.73-.94 1.08-.01 1.98.86 1.99 1.94v.02zm13.1 13.13v-8.78l-1.23-.43v-.42l4.48-.83.45.04v1.32h.12a5.955 5.955 0 013.82-1.42c1.95 0 2.81.92 2.81 2.99v7.53l1.05.6v.44h-5.84v-.44l1.05-.57v-7.36c0-1.13-.5-1.58-1.42-1.58-.56-.01-1.1.16-1.54.49v8.45l1.03.57v.45h-5.83v-.44l1.05-.61zm-6.35-5.52V20.7c0-2.22-.48-2.95-1.86-2.95-.15 0-.31.02-.47.04l-2.44 3.31h-.35v-3.05c1.32-.45 2.71-.69 4.1-.71 2.99 0 4.72.83 4.72 3.33v7.18l1.07.28v.28c-.68.35-1.44.52-2.2.51-1.47 0-2.18-.48-2.5-1.29h-.11c-.63.85-1.51 1.33-2.91 1.33-1.77 0-2.99-1.11-2.99-3.02 0-1.86 1.15-2.86 3.49-3.31l2.45-.46zm0 4.97V22.7l-.75.06c-1.17.1-1.59.85-1.59 2.5 0 1.79.6 2.26 1.41 2.26.35.03.7-.11.93-.38zm-37.86-4.97V20.7c0-2.22-.48-2.95-1.86-2.95-.15 0-.31.02-.47.04L27.7 21.1h-.34v-3.05c1.32-.45 2.7-.69 4.1-.71 2.99 0 4.72.83 4.72 3.33v7.18l1.07.28v.28c-.68.35-1.44.52-2.2.51-1.47 0-2.18-.48-2.5-1.29h-.1c-.63.85-1.51 1.33-2.91 1.33-1.77 0-2.99-1.11-2.99-3.02 0-1.86 1.15-2.86 3.49-3.31l2.42-.46zm0 4.97V22.7l-.75.06c-1.17.1-1.59.85-1.59 2.5 0 1.79.6 2.26 1.41 2.26.35.03.7-.11.93-.38z" fill="#939598"></path></svg> 