<?xml version="1.0" encoding="UTF-8"?> <!-- Generator: Adobe Illustrator 24.3.0, SVG Export Plug-In . SVG Version: 6.00 Build 0) --> <svg xmlns="http://www.w3.org/2000/svg" xmlns:xlink="http://www.w3.org/1999/xlink" version="1.1" id="Layer_1" x="0px" y="0px" viewBox="0 0 300 217.9" style="enable-background:new 0 0 300 217.9;" xml:space="preserve"> <style type="text/css"> .st0{fill:#1B1B42;} .st1{fill:#3D3D99;} .st2{fill:#4560E6;} .st3{fill:#192B80;} .st4{fill:#F2F5FA;} .st5{fill:#482D70;} .st6{fill:#F9D4D4;} </style> <polygon class="st0" points="299.8,217.9 193,217.9 193,217.1 300,217.1 "></polygon> <circle class="st1" cx="2.8" cy="2.8" r="2.8"></circle> <circle class="st1" cx="17.1" cy="2.8" r="2.8"></circle> <circle class="st1" cx="31.4" cy="2.8" r="2.8"></circle> <circle class="st1" cx="45.7" cy="2.8" r="2.8"></circle> <circle class="st1" cx="60" cy="2.8" r="2.8"></circle> <circle class="st1" cx="74.3" cy="2.8" r="2.8"></circle> <circle class="st1" cx="88.6" cy="2.8" r="2.8"></circle> <circle class="st1" cx="102.9" cy="2.8" r="2.8"></circle> <circle class="st1" cx="117.2" cy="2.8" r="2.8"></circle> <circle class="st1" cx="131.5" cy="2.8" r="2.8"></circle> <circle class="st1" cx="2.8" cy="17.3" r="2.8"></circle> <circle class="st1" cx="17.1" cy="17.3" r="2.8"></circle> <circle class="st1" cx="31.4" cy="17.3" r="2.8"></circle> <circle class="st2" cx="45.7" cy="17.3" r="2.8"></circle> <circle class="st1" cx="60" cy="17.3" r="2.8"></circle> <circle class="st1" cx="74.3" cy="17.3" r="2.8"></circle> <circle class="st1" cx="88.6" cy="17.3" r="2.8"></circle> <circle class="st1" cx="102.9" cy="17.3" r="2.8"></circle> <circle class="st1" cx="117.2" cy="17.3" r="2.8"></circle> <circle class="st1" cx="131.5" cy="17.3" r="2.8"></circle> <circle class="st1" cx="2.8" cy="31.8" r="2.8"></circle> <circle class="st1" cx="17.1" cy="31.8" r="2.8"></circle> <circle class="st1" cx="31.4" cy="31.8" r="2.8"></circle> <circle class="st1" cx="45.7" cy="31.8" r="2.8"></circle> <circle class="st1" cx="60" cy="31.8" r="2.8"></circle> <circle class="st1" cx="74.3" cy="31.8" r="2.8"></circle> <circle class="st1" cx="88.6" cy="31.8" r="2.8"></circle> <circle class="st1" cx="102.9" cy="31.8" r="2.8"></circle> <circle class="st1" cx="117.2" cy="31.8" r="2.8"></circle> <circle class="st1" cx="131.5" cy="31.8" r="2.8"></circle> <circle class="st1" cx="2.8" cy="46.2" r="2.8"></circle> <circle class="st1" cx="17.1" cy="46.2" r="2.8"></circle> <circle class="st1" cx="31.4" cy="46.2" r="2.8"></circle> <circle class="st1" cx="45.7" cy="46.2" r="2.8"></circle> <circle class="st1" cx="60" cy="46.2" r="2.8"></circle> <circle class="st1" cx="74.3" cy="46.2" r="2.8"></circle> <circle class="st1" cx="88.6" cy="46.2" r="2.8"></circle> <circle class="st1" cx="102.9" cy="46.2" r="2.8"></circle> <circle class="st1" cx="117.2" cy="46.2" r="2.8"></circle> <circle class="st1" cx="131.5" cy="46.2" r="2.8"></circle> <circle class="st1" cx="2.8" cy="60.7" r="2.8"></circle> <circle class="st2" cx="17.1" cy="60.7" r="2.8"></circle> <circle class="st1" cx="31.4" cy="60.7" r="2.8"></circle> <circle class="st1" cx="45.7" cy="60.7" r="2.8"></circle> <circle class="st1" cx="60" cy="60.7" r="2.8"></circle> <circle class="st1" cx="74.3" cy="60.7" r="2.8"></circle> <circle class="st1" cx="88.6" cy="60.7" r="2.8"></circle> <circle class="st1" cx="102.9" cy="60.7" r="2.8"></circle> <circle class="st1" cx="117.2" cy="60.7" r="2.8"></circle> <circle class="st1" cx="131.5" cy="60.7" r="2.8"></circle> <circle class="st1" cx="2.8" cy="75.2" r="2.8"></circle> <circle class="st1" cx="17.1" cy="75.2" r="2.8"></circle> <circle class="st1" cx="31.4" cy="75.2" r="2.8"></circle> <circle class="st1" cx="45.7" cy="75.2" r="2.8"></circle> <circle class="st1" cx="60" cy="75.2" r="2.8"></circle> <circle class="st1" cx="74.3" cy="75.2" r="2.8"></circle> <circle class="st1" cx="88.6" cy="75.2" r="2.8"></circle> <circle class="st1" cx="102.9" cy="75.2" r="2.8"></circle> <circle class="st1" cx="117.2" cy="75.2" r="2.8"></circle> <circle class="st1" cx="131.5" cy="75.2" r="2.8"></circle> <circle class="st1" cx="2.8" cy="89.7" r="2.8"></circle> <circle class="st1" cx="17.1" cy="89.7" r="2.8"></circle> <circle class="st2" cx="31.4" cy="89.7" r="2.8"></circle> <circle class="st1" cx="45.7" cy="89.7" r="2.8"></circle> <circle class="st1" cx="60" cy="89.7" r="2.8"></circle> <circle class="st1" cx="74.3" cy="89.7" r="2.8"></circle> <circle class="st1" cx="88.6" cy="89.7" r="2.8"></circle> <circle class="st1" cx="102.9" cy="89.7" r="2.8"></circle> <circle class="st1" cx="117.2" cy="89.7" r="2.8"></circle> <circle class="st1" cx="131.5" cy="89.7" r="2.8"></circle> <circle class="st1" cx="2.8" cy="104.1" r="2.8"></circle> <circle class="st1" cx="17.1" cy="104.1" r="2.8"></circle> <circle class="st1" cx="31.4" cy="104.1" r="2.8"></circle> <circle class="st1" cx="45.7" cy="104.1" r="2.8"></circle> <circle class="st1" cx="60" cy="104.1" r="2.8"></circle> <circle class="st1" cx="74.3" cy="104.1" r="2.8"></circle> <circle class="st1" cx="88.6" cy="104.1" r="2.8"></circle> <circle class="st1" cx="102.9" cy="104.1" r="2.8"></circle> <circle class="st1" cx="117.2" cy="104.1" r="2.8"></circle> <circle class="st1" cx="131.5" cy="104.1" r="2.8"></circle> <circle class="st1" cx="2.8" cy="118.6" r="2.8"></circle> <circle class="st1" cx="17.1" cy="118.6" r="2.8"></circle> <circle class="st1" cx="31.4" cy="118.6" r="2.8"></circle> <circle class="st1" cx="45.7" cy="118.6" r="2.8"></circle> <circle class="st1" cx="60" cy="118.6" r="2.8"></circle> <circle class="st1" cx="74.3" cy="118.6" r="2.8"></circle> <circle class="st1" cx="88.6" cy="118.6" r="2.8"></circle> <circle class="st1" cx="102.9" cy="118.6" r="2.8"></circle> <circle class="st1" cx="117.2" cy="118.6" r="2.8"></circle> <circle class="st1" cx="131.5" cy="118.6" r="2.8"></circle> <circle class="st1" cx="2.8" cy="133.1" r="2.8"></circle> <circle class="st1" cx="17.1" cy="133.1" r="2.8"></circle> <circle class="st1" cx="31.4" cy="133.1" r="2.8"></circle> <circle class="st1" cx="45.7" cy="133.1" r="2.8"></circle> <circle class="st1" cx="60" cy="133.1" r="2.8"></circle> <circle class="st1" cx="74.3" cy="133.1" r="2.8"></circle> <circle class="st1" cx="88.6" cy="133.1" r="2.8"></circle> <circle class="st1" cx="102.9" cy="133.1" r="2.8"></circle> <circle class="st1" cx="117.2" cy="133.1" r="2.8"></circle> <circle class="st1" cx="131.5" cy="133.1" r="2.8"></circle> <path class="st3" d="M165.9,25.2c2,0,3.6,1.6,3.6,3.6l0,0v142.8c0,2-1.6,3.6-3.6,3.6l0,0H63.5c-2,0-3.6-1.6-3.6-3.6l0,0V28.8 c0-2,1.6-3.6,3.6-3.6l0,0H165.9"></path> <path class="st4" d="M63.9,171.2h101.6v-142H63.9V171.2z"></path> <path class="st5" d="M142.9,51.7c0.4,0,0.7,0.3,0.7,0.7l0,0v1.4c0,0.4-0.3,0.7-0.7,0.7H86.5c-0.4,0-0.7-0.3-0.7-0.7v-1.4 c0-0.4,0.3-0.7,0.7-0.7l0,0L142.9,51.7"></path> <path class="st5" d="M142.9,65.2c0.4,0,0.7,0.3,0.7,0.7v1.4c0,0.4-0.3,0.7-0.7,0.7H86.5c-0.4,0-0.7-0.3-0.7-0.7V66 c0-0.4,0.3-0.7,0.7-0.7H142.9"></path> <path class="st5" d="M142.9,72.2c0.4,0,0.7,0.3,0.7,0.7v1.4c0,0.4-0.3,0.7-0.7,0.7H86.5c-0.4,0-0.7-0.3-0.7-0.7v-1.4 c0-0.4,0.3-0.7,0.7-0.7H142.9"></path> <path class="st5" d="M142.9,79c0.4,0,0.7,0.3,0.7,0.7v1.4c0,0.4-0.3,0.7-0.7,0.7l0,0H86.5c-0.4,0-0.7-0.3-0.7-0.7l0,0v-1.4 c0-0.4,0.3-0.7,0.7-0.7H142.9"></path> <path class="st5" d="M142.9,85.8c0.4,0,0.7,0.3,0.7,0.7v1.4c0,0.4-0.3,0.7-0.7,0.7H86.5c-0.4,0-0.7-0.3-0.7-0.7v-1.4 c0-0.4,0.3-0.7,0.7-0.7H142.9"></path> <polygon class="st0" points="114.9,59.2 114.3,59.1 127.1,11.2 200.9,11.2 200.9,11.8 127.5,11.8 "></polygon> <path class="st0" d="M206.9,17.8c-3.5,0-6.3-2.8-6.3-6.3s2.8-6.3,6.3-6.3s6.3,2.8,6.3,6.3l0,0C213.3,15,210.4,17.8,206.9,17.8z M206.9,5.7c-3.2,0-5.7,2.6-5.7,5.7s2.6,5.7,5.7,5.7c3.2,0,5.7-2.6,5.7-5.7l0,0C212.7,8.3,210.1,5.7,206.9,5.7z"></path> <circle class="st2" cx="206.9" cy="11.5" r="2.4"></circle> <polygon class="st0" points="112.9,147.9 113.5,148.1 100.7,196 26.8,195.8 26.8,195.2 100.2,195.4 "></polygon> <path class="st0" d="M20.8,189.2c3.5,0,6.3,2.9,6.3,6.4c0,3.5-2.9,6.3-6.4,6.3c-3.5,0-6.3-2.9-6.3-6.4l0,0 C14.5,192,17.3,189.2,20.8,189.2z M20.8,201.2c3.2,0,5.7-2.6,5.7-5.7c0-3.2-2.6-5.7-5.7-5.7c-3.2,0-5.7,2.6-5.7,5.7l0,0 C15.1,198.7,17.6,201.2,20.8,201.2z"></path> <circle class="st2" cx="20.8" cy="195.5" r="2.4"></circle> <polygon class="st6" points="231.4,204 227.1,204 227.9,180.4 239.1,181.1 "></polygon> <path class="st0" d="M232,217.6c-1.3,0.6-2.4-4.2-3.4-3.1c-3,3-6.2,3.6-10.2,2.3l-0.1,0c-1-0.3-1.6-1.4-1.2-2.4c0,0,0-0.1,0-0.1l0,0 c0.2-0.6,0.7-1,1.3-1.2l3.2-0.8l5.1-8.9l5.2-0.4l0,0c2.3,3,3.2,6.9,2.3,10.5C233.6,215.5,232.9,217.2,232,217.6z"></path> <polygon class="st6" points="271.9,200.9 267.9,202.5 259.9,180.3 270.6,176.7 "></polygon> <path class="st0" d="M277.4,213.3c-1,1-3.7-3-4.4-1.6c-1.7,3.9-4.4,5.6-8.6,5.9l-0.1,0c-1,0.1-2-0.7-2-1.8c0,0,0-0.1,0-0.1l0,0 c0-0.6,0.3-1.2,0.8-1.6l2.7-1.9l1.4-10.1l4.7-2.2l0,0c3.3,1.9,5.5,5.2,6,9C278.1,210.8,278.1,212.6,277.4,213.3z"></path> <path class="st6" d="M258.9,87.1l-6.5,1.7c-1.8,0.5-3.7-0.6-4.2-2.5c-0.1-0.2-0.1-0.5-0.1-0.7l0,0c-0.1-1.9,1.4-3.5,3.3-3.6 c0.1,0,0.2,0,0.2,0l5.8,0.2l11.1-4L258,70.3l1.2-11l20.5,16.4c0.7,0.6,1.2,1.5,1.3,2.4l0,0c0.1,1.6-0.9,3.1-2.5,3.5 C273.6,85.6,266.7,86.8,258.9,87.1z"></path> <circle class="st6" cx="244" cy="35.3" r="10.6"></circle> <path class="st6" d="M257.1,50l-14.3,5.8c0.4-4.5-0.8-9-3.4-12.8l11.9-2.7C251.2,43.8,253.1,47.1,257.1,50z"></path> <path class="st0" d="M259.7,74.7c-11.5,0.9-20,0.7-29.7-5l5.8-9.8l0,0c-0.4-2.6,0.8-5.2,2.9-6.8l3.8-2.7l11.6-3.3l0.5,0 c3.2,0.2,5.3,2.6,6,5.8C263.1,60.6,263.4,68.2,259.7,74.7z"></path> <path class="st0" d="M258.4,91.7l-25.2-1.3l-2.3-8.5c-4.1-6.1-2.3-11.7,2.4-17c8.6,5.5,16.3,8.5,27.7,6.7 C258.1,78.9,256.5,84.8,258.4,91.7z"></path> <path class="st0" d="M277,184.7l-19.6-1.1l-6.4-50.8l-5.2,50.5l-23.3-1.1c7.1-33.2,12-64.7,10.6-93.7l24.3,2.1 c8.2,8.7,12.3,22.6,14.8,39.1C274.7,146.3,276.6,165.5,277,184.7z"></path> <ellipse transform="matrix(0.2298 -0.9732 0.9732 0.2298 175.5735 265.8267)" class="st0" cx="255.7" cy="22" rx="3.7" ry="3.7"></ellipse> <path class="st0" d="M252,21.1c0.1-1.9,1.7-3.4,3.7-3.4c-0.1,0-0.1,0-0.2,0c-2-0.1-3.8,1.4-3.9,3.4s1.4,3.8,3.4,3.9 c0.1,0,0.1,0,0.2,0C253.2,24.7,251.8,23,252,21.1z"></path> <path class="st0" d="M251.9,22.6c-3.3-2.7-12.6,0.7-13.2,2.5c-4.4,0.6-7.8,3.2-7.8,7.8l0,0c2.6,1.1,5.6,0.9,8.8,0 c5.1,4.2,5.5,9.5,2.4,15.5l3.9,0.1l4.8-7l0.2,7.1l8.8-0.2V38.3c0-3.4-0.8-6.7-2.3-9.7C256.2,26,254.1,24.4,251.9,22.6z"></path> <ellipse class="st6" cx="243.7" cy="38.1" rx="1.8" ry="2.5"></ellipse> <path class="st2" d="M230.3,132.1c0.3,0,0.6,0.3,0.6,0.6v24.6c0,0.3-0.3,0.6-0.6,0.6h-17.6c-0.3,0-0.6-0.3-0.6-0.6v-24.6 c0-0.3,0.3-0.6,0.6-0.6L230.3,132.1"></path> <path class="st6" d="M232.8,123l0.6,10.3c0.1,2.5-1.8,4.6-4.2,4.7c-0.3,0-0.6,0-0.9,0l0,0c-2.6-0.4-2.7-2.9-2-5.5l2.4-9.8 c6-21.6,7.6-42.7,7.3-63.3c-0.1-2.9,2.2-5.2,5.1-5.3c0.1,0,0.1,0,0.2,0l0,0c2.9,0.1,5.1,2.5,5,5.3c0,0,0,0,0,0 C245.4,83.6,241.9,105.6,232.8,123z"></path> <path class="st2" d="M142.9,58.5c0.4,0,0.7,0.3,0.7,0.7v1.4c0,0.4-0.3,0.7-0.7,0.7H86.5c-0.4,0-0.7-0.3-0.7-0.7v-1.4 c0-0.4,0.3-0.7,0.7-0.7l0,0H142.9"></path> <path class="st5" d="M86.9,108.6c-0.5,0-0.8,0.4-0.8,0.8v38.5c0,0.5,0.4,0.8,0.8,0.8h55.6c0.5,0,0.8-0.4,0.8-0.8v-38.5 c0-0.5-0.4-0.8-0.8-0.8H86.9z"></path> </svg> 