<?xml version="1.0" encoding="UTF-8"?> <svg xmlns="http://www.w3.org/2000/svg" version="1.1" id="Layer_1" x="0" y="0" viewBox="0 0 89.51 33.01" xml:space="preserve"><style>.st0{fill:#939598}</style><path class="st0" d="M9.41 14.69H3.12V8.27H0v16.11h3.12v-6.72h6.29v6.72h3.12V8.27H9.41zM33.73 11.83c-1.4 0-2.48.47-3.35 1.51V7.99h-2.73v8.14c0 2.74.02 3.07.41 4.24.78 2.41 3.03 4.06 5.55 4.06 3.44 0 6.11-2.76 6.11-6.3 0-3.47-2.68-6.3-5.99-6.3zm-.16 9.91c-1.84 0-3.37-1.63-3.37-3.61 0-2 1.52-3.61 3.37-3.61 1.79 0 3.33 1.65 3.33 3.58 0 1.98-1.52 3.64-3.33 3.64zM59 11.91c-2.52 0-4.77 1.65-5.55 4.06-.39 1.18-.41 1.51-.41 4.24v8.14h2.73V23c.87 1.04 1.95 1.51 3.35 1.51 3.31 0 5.99-2.83 5.99-6.3-.01-3.55-2.67-6.3-6.11-6.3zm-.05 9.9c-1.86 0-3.37-1.6-3.37-3.61 0-1.98 1.54-3.61 3.37-3.61 1.81 0 3.33 1.65 3.33 3.63 0 1.94-1.54 3.59-3.33 3.59zM46.83 14.63l-1.39-.48c-.74-.26-1.21-.84-1.21-1.55 0-.96.81-1.62 2.04-1.62.94 0 1.53.29 2.38 1.12l.31.31L51 10.28c-1.59-1.89-2.56-2.36-4.83-2.36-2.94 0-5.07 2.03-5.07 4.83 0 2.17 1.23 3.77 3.55 4.56l1.19.41c1.73.6 2.2 1.05 2.2 2.01 0 1.1-.9 1.84-2.2 1.84-1.23 0-2.13-.53-3.01-1.77l-2.04 2.22c1.64 2.08 2.72 2.63 5.12 2.63 3.03 0 5.25-2.1 5.25-4.99 0-2.5-1.3-4-4.33-5.03zM88.46 21.81c-1.84 0-2.41-.48-2.41-2.08v-4.62h2.73v-2.66h-2.73V9.03l-2.73 1.43v9.28c0 3.43 1.31 4.91 4.34 4.91.37 0 .55-.02 1.12-.05l.73-2.9c-.5.09-.71.11-1.05.11zM22.58 19.3c0 1.39-1.13 2.52-2.52 2.52h-.14c-1.39 0-2.52-1.13-2.52-2.52v-7.08h-2.84v7.15c0 2.79 2.26 5.05 5.05 5.05h.68c2.79 0 5.05-2.26 5.05-5.05v-7.15h-2.75v7.08z"></path><path class="st0" d="M75.06 10.81v-3.5a2.868 2.868 0 00-.77-5.63 2.87 2.87 0 00-2.87 2.87c0 1.22.76 2.26 1.83 2.67v3.59c-.99.12-1.92.42-2.75.89l-9.8-7.38A3.145 3.145 0 0057.79 0c-1.73 0-3.14 1.41-3.14 3.14a3.145 3.145 0 004.92 2.59l9.42 7.09a7.525 7.525 0 00-2.38 5.49c0 2.71 1.43 5.08 3.57 6.41l-2.34 3.72c-.09-.01-.17-.02-.26-.02a2.3 2.3 0 102.3 2.3c0-.52-.18-1-.47-1.39l2.41-3.84a7.55 7.55 0 009.88-7.18c.01-3.87-2.89-7.05-6.64-7.5zm-.79 11.92c-2.44 0-4.41-1.97-4.41-4.41 0-2.44 1.97-4.41 4.41-4.41a4.41 4.41 0 010 8.82z"></path><path class="st0" d="M56.5 2.24c-.3.51-.72.84-.94.72-.22-.12-.15-.63.15-1.15.3-.51.72-.84.94-.72.22.12.15.64-.15 1.15zM74.35 2.4c.62.06 1.07.29.99.53-.08.24-.64.38-1.26.32s-1.07-.29-.99-.53c.07-.24.63-.38 1.26-.32zM66.43 29.3c.45-.43.92-.61 1.05-.4.13.21-.14.73-.59 1.16-.45.43-.92.61-1.05.4-.13-.21.13-.73.59-1.16z"></path></svg> 