<?xml version="1.0" encoding="UTF-8"?> <svg xmlns="http://www.w3.org/2000/svg" viewBox="0 0 50 50"><circle cx="15.361" cy="15.361" r="15.361" opacity=".8" fill="#f2f5fa"></circle><linearGradient id="a" gradientUnits="userSpaceOnUse" x1="4.171" y1="37.987" x2="54.412" y2="19.701"><stop offset="0" stop-color="#192b80"></stop><stop offset="1" stop-color="#482d70"></stop></linearGradient><path d="M17.962 12.38v6.015a.832.832 0 01-.836.829.832.832 0 01-.836-.829V12.38c0-2.11-1.732-3.826-3.86-3.826S8.57 10.27 8.57 12.38v6.839c0 2.11 1.732 3.826 3.86 3.826.462 0 .836.371.836.829a.832.832 0 01-.836.829c-3.051 0-5.533-2.46-5.533-5.484V12.38c0-3.024 2.482-5.484 5.533-5.484s5.532 2.461 5.532 5.484zm-5.533 7.165c-.462 0-.836.371-.836.829s.374.829.836.829c2.128 0 3.86 1.716 3.86 3.826v6.015c0 .458.374.829.836.829a.832.832 0 00.836-.829v-6.015c.001-3.024-2.481-5.484-5.532-5.484zm0 17.806a.832.832 0 00.836-.829.832.832 0 00-.836-.829c-2.128 0-3.86-1.716-3.86-3.826v-6.221a.832.832 0 00-.836-.829.832.832 0 00-.836.829v6.221c0 3.024 2.482 5.484 5.532 5.484zm0-5.158c-.462 0-.836.371-.836.829s.374.829.836.829c2.128 0 3.86 1.716 3.86 3.826v6.839c0 2.11-1.732 3.826-3.86 3.826s-3.86-1.716-3.86-3.826v-6.221a.832.832 0 00-.836-.829.832.832 0 00-.836.829v6.221C6.897 47.54 9.379 50 12.429 50s5.533-2.46 5.533-5.484v-6.839c0-3.024-2.482-5.484-5.533-5.484zm36.735-.217h-7.288c-.462 0-.836.371-.836.829s.374.829.836.829h6.452v14.709H25.174v-14.71h6.452c.462 0 .836-.371.836-.829s-.374-.829-.836-.829h-7.288a.832.832 0 00-.836.829v16.367c0 .458.374.829.836.829h24.826a.832.832 0 00.836-.829V32.805a.832.832 0 00-.836-.829zm0-25.079H24.337a.832.832 0 00-.836.829v16.366c0 .458.374.829.836.829h7.288c.462 0 .836-.371.836-.829s-.374-.829-.836-.829h-6.452V8.554h23.154v14.709h-6.452c-.462 0-.836.371-.836.829s.374.829.836.829h7.288a.832.832 0 00.836-.829V7.725a.83.83 0 00-.835-.828zM36.75 22.921a1.25 1.25 0 001.254-1.243c0-.686-.563-1.243-1.254-1.243s-1.254.558-1.254 1.243a1.25 1.25 0 001.254 1.243zm0 6.79a1.25 1.25 0 001.254-1.243c0-.686-.563-1.243-1.254-1.243s-1.254.558-1.254 1.243a1.25 1.25 0 001.254 1.243zm0 6.79c.692 0 1.254-.558 1.254-1.243s-.563-1.243-1.254-1.243-1.254.558-1.254 1.243.563 1.243 1.254 1.243z" fill="url(#a)"></path></svg> 