<?xml version="1.0" encoding="UTF-8"?> <svg xmlns="http://www.w3.org/2000/svg" viewBox="0 0 50 50"><circle cx="15.361" cy="15.361" r="15.361" opacity=".8" fill="#f2f5fa"></circle><linearGradient id="a" gradientUnits="userSpaceOnUse" x1="6.521" y1="36.464" x2="50.352" y2="20.51"><stop offset="0" stop-color="#192b80"></stop><stop offset="1" stop-color="#482d70"></stop></linearGradient><path d="M50 28.448A21.548 21.548 0 0136.988 48.24a.871.871 0 01-.691-1.599 19.807 19.807 0 0011.961-18.193c0-10.923-8.887-19.81-19.81-19.81-10.923 0-19.81 8.887-19.81 19.81a19.806 19.806 0 0011.961 18.193.871.871 0 01-.691 1.599A21.547 21.547 0 016.897 28.448c0-11.884 9.668-21.552 21.552-21.552C40.332 6.897 50 16.565 50 28.448zM32.905 41.156a.872.872 0 01.255.616v7.358a.869.869 0 01-.871.87.869.869 0 01-.616-.255l-3.225-3.225-3.225 3.225a.87.87 0 01-1.487-.615v-7.358c0-.231.092-.452.255-.616l3.586-3.586v-7.49a1.852 1.852 0 01-.98-1.632c0-1.02.83-1.85 1.85-1.85s1.85.83 1.85 1.85a1.85 1.85 0 01-.98 1.632v7.49l3.588 3.586zm-1.487.976l-2.97-2.97-2.97 2.97v4.895l2.354-2.354a.868.868 0 011.232 0l2.354 2.354v-4.895zm4.719-2.868a.87.87 0 101.012 1.418c3.958-2.822 6.321-7.396 6.321-12.234 0-8.283-6.738-15.021-15.021-15.021s-15.021 6.738-15.021 15.021c0 4.838 2.363 9.411 6.321 12.234a.872.872 0 001.012-1.418 13.32 13.32 0 01-5.59-10.816c0-7.322 5.957-13.279 13.279-13.279s13.279 5.957 13.279 13.279a13.32 13.32 0 01-5.592 10.816zm-7.689-19.306c-4.681 0-8.49 3.809-8.49 8.49a8.5 8.5 0 003.638 6.965.87.87 0 10.996-1.428 6.76 6.76 0 01-2.893-5.537 6.757 6.757 0 016.749-6.749 6.757 6.757 0 016.749 6.749 6.757 6.757 0 01-2.893 5.537.87.87 0 10.997 1.427 8.501 8.501 0 003.638-6.965c-.001-4.68-3.809-8.489-8.491-8.489z" fill="url(#a)"></path></svg> 