<?xml version="1.0" encoding="UTF-8"?> <svg xmlns="http://www.w3.org/2000/svg" xmlns:xlink="http://www.w3.org/1999/xlink" width="401px" height="55px" viewBox="0 0 401 55" version="1.1"><!-- Generator: Sketch 63.1 (92452) - https://sketch.com --><title>Group 2</title><desc>Created with Sketch.</desc><defs><path d="M9.6,49.2264759 L24.4244898,0.965251458 L14.6285714,0.965251458 L5.38603823e-14,49.2264759 L9.6,49.2264759 Z M28.9824068,49.2264759 L43.8068966,0.965251458 L34.0109782,0.965251458 L19.3824068,49.2264759 L28.9824068,49.2264759 Z" id="path-1"></path><path d="M168.250656,18.1874089 L168.250656,16.4335824 L166.439887,16.0919278 L166.439887,11.1037719 L172.361899,11.1037719 L172.361899,8.88301749 L166.439887,8.88301749 L166.439887,3.82653061 L172.236625,3.82653061 L172.418841,5.91062318 L174.662372,5.91062318 L174.662372,1.60577624 L161.75922,1.60577624 L161.75922,3.37099125 L163.569989,3.71264577 L163.569989,16.0919278 L161.75922,16.4335824 L161.75922,18.1874089 L168.250656,18.1874089 Z M182.258491,18.1874089 L182.258491,16.4335824 L180.550219,16.0919278 L180.550219,9.66882289 C180.770396,9.25124514 181.051312,8.92477527 181.392966,8.68941327 C181.734621,8.45405126 182.167383,8.35155491 182.691254,8.3819242 L182.691254,8.3819242 L184.29703,8.47303207 L184.627296,5.81951531 C184.255272,5.69803814 183.833898,5.63729956 183.363174,5.63729956 C182.110441,5.63729956 181.153808,6.31301628 180.493276,7.66444971 L180.493276,7.66444971 L180.470499,7.41390306 L180.322449,5.86506924 L175.88094,5.86506924 L175.88094,7.63028426 L177.680321,7.97193878 L177.680321,16.0919278 L175.983437,16.4335824 L175.983437,18.1874089 L182.258491,18.1874089 Z M191.300948,18.4265671 C192.477758,18.4265671 193.489435,18.1608358 194.335978,17.6293732 C195.182522,17.0979106 195.833564,16.3614553 196.289103,15.4200073 C196.744643,14.4785593 196.972413,13.389061 196.972413,12.1515124 L196.972413,12.1515124 L196.972413,11.9123542 C196.972413,10.6899903 196.744643,9.60618622 196.289103,8.66094206 C195.833564,7.71569789 195.180624,6.97544643 194.330284,6.44018768 C193.479944,5.90492894 192.462573,5.63729956 191.278171,5.63729956 C190.108953,5.63729956 189.099174,5.90682702 188.248834,6.44588192 C187.398494,6.98493683 186.745554,7.72518829 186.290015,8.6666363 C185.834475,9.60808431 185.606706,10.6899903 185.606706,11.9123542 L185.606706,11.9123542 L185.606706,12.1515124 C185.606706,13.3814687 185.834475,14.4671708 186.290015,15.4086188 C186.745554,16.3500668 187.398494,17.0884202 188.248834,17.6236789 C189.099174,18.1589377 190.116545,18.4265671 191.300948,18.4265671 Z M191.300948,16.2172012 C190.336723,16.2172012 189.624942,15.8394831 189.165607,15.084047 C188.706271,14.3286109 188.476603,13.3510994 188.476603,12.1515124 L188.476603,12.1515124 L188.476603,11.9123542 C188.476603,10.7355442 188.706271,9.765625 189.165607,9.00259657 C189.624942,8.23956815 190.32913,7.85805394 191.278171,7.85805394 C192.234803,7.85805394 192.946583,8.23956815 193.413511,9.00259657 C193.880439,9.765625 194.113903,10.7355442 194.113903,11.9123542 L194.113903,11.9123542 L194.113903,12.1515124 C194.113903,13.3510994 193.882337,14.3286109 193.419206,15.084047 C192.956074,15.8394831 192.249988,16.2172012 191.300948,16.2172012 Z M204.625474,18.1874089 L204.625474,16.4335824 L203.065251,16.0919278 L203.065251,9.3043914 C203.32339,8.86403669 203.661249,8.52048409 204.078827,8.2737336 C204.496404,8.02698311 204.978517,7.90360787 205.525164,7.90360787 C206.261619,7.90360787 206.815859,8.09911018 207.187883,8.4901148 C207.559906,8.88111941 207.745918,9.54354956 207.745918,10.4774052 L207.745918,10.4774052 L207.745918,16.0919278 L206.140142,16.4335824 L206.140142,18.1874089 L212.324089,18.1874089 L212.324089,16.4335824 L210.615816,16.0919278 L210.615816,10.4546283 C210.615816,8.80709427 210.262773,7.59232264 209.556687,6.81031341 C208.850601,6.02830418 207.863599,5.63729956 206.595681,5.63729956 C205.821265,5.63729956 205.128465,5.81382106 204.517283,6.16686407 C203.906101,6.51990707 203.395517,7.01530612 202.985532,7.65306122 L202.985532,7.65306122 L202.837482,5.86506924 L198.395973,5.86506924 L198.395973,7.63028426 L200.195353,7.97193878 L200.195353,16.0919278 L198.487081,16.4335824 L198.487081,18.1874089 L204.625474,18.1874089 Z M217.836115,18.4037901 C218.230916,18.4037901 218.644698,18.3696246 219.07746,18.3012937 C219.510222,18.2329628 219.889838,18.1494473 220.216308,18.0507471 L220.216308,18.0507471 L219.931596,16.0349854 C219.764565,16.072947 219.550082,16.1090106 219.288147,16.143176 C219.026212,16.1773415 218.788952,16.1944242 218.576367,16.1944242 C218.204343,16.1944242 217.91014,16.0767432 217.693759,15.8413812 C217.477378,15.6060192 217.369187,15.2264031 217.369187,14.7025328 L217.369187,14.7025328 L217.369187,7.91499636 L219.806323,7.91499636 L219.806323,5.86506924 L217.369187,5.86506924 L217.369187,2.86989796 L214.510678,2.86989796 L214.510678,5.86506924 L212.711297,5.86506924 L212.711297,7.91499636 L214.510678,7.91499636 L214.510678,14.7025328 C214.510678,15.9932276 214.802982,16.9327776 215.387591,17.5211826 C215.9722,18.1095876 216.788375,18.4037901 217.836115,18.4037901 Z M228.438794,12.2426203 L228.438794,10.0218659 L222.38012,10.0218659 L222.38012,12.2426203 L228.438794,12.2426203 Z M236.513229,18.4265671 C237.523008,18.4265671 238.401819,18.2880072 239.149663,18.0108874 C239.897507,17.7337676 240.514383,17.3864189 241.000292,16.9688411 L241.000292,16.9688411 L240.11199,15.1694606 C239.641266,15.5035228 239.13258,15.7616618 238.585933,15.9438776 C238.039286,16.1260933 237.4319,16.2172012 236.763776,16.2172012 C235.807143,16.2172012 235.070688,15.9040179 234.55441,15.2776512 C234.038132,14.6512846 233.757216,13.8521927 233.711662,12.8803754 L233.711662,12.8803754 L233.734439,12.8234329 L241.296392,12.8234329 L241.296392,11.1834913 C241.296392,9.46003401 240.861732,8.10480442 239.992411,7.11780248 C239.12309,6.13080053 237.85707,5.63729956 236.194351,5.63729956 C235.139018,5.63729956 234.203265,5.90492894 233.38709,6.44018768 C232.570915,6.97544643 231.929364,7.71190172 231.462436,8.64955357 C230.995508,9.58720542 230.762044,10.6558248 230.762044,11.8554118 L230.762044,11.8554118 L230.762044,12.3337281 C230.762044,13.5181305 230.999305,14.5696672 231.473825,15.4883382 C231.948345,16.4070092 232.614571,17.1263818 233.472504,17.6464559 C234.330436,18.16653 235.344011,18.4265671 236.513229,18.4265671 Z M238.551767,10.8076713 L233.779993,10.8076713 L233.745827,10.7507289 C233.844527,9.90798105 234.108361,9.20569121 234.537327,8.64385933 C234.966293,8.08202745 235.530023,7.80111152 236.228517,7.80111152 C237.025711,7.80111152 237.612218,8.05165816 237.988038,8.55275146 C238.363858,9.05384475 238.551767,9.7067845 238.551767,10.5115707 L238.551767,10.5115707 L238.551767,10.8076713 Z M248.983619,18.1874089 L248.983619,16.4335824 L247.423397,16.0919278 L247.423397,9.3043914 C247.681535,8.86403669 248.019394,8.52048409 248.436972,8.2737336 C248.854549,8.02698311 249.336662,7.90360787 249.883309,7.90360787 C250.619764,7.90360787 251.174004,8.09911018 251.546028,8.4901148 C251.918052,8.88111941 252.104063,9.54354956 252.104063,10.4774052 L252.104063,10.4774052 L252.104063,16.0919278 L250.498287,16.4335824 L250.498287,18.1874089 L256.682234,18.1874089 L256.682234,16.4335824 L254.973961,16.0919278 L254.973961,10.4546283 C254.973961,8.80709427 254.620918,7.59232264 253.914832,6.81031341 C253.208746,6.02830418 252.221744,5.63729956 250.953827,5.63729956 C250.17941,5.63729956 249.48661,5.81382106 248.875428,6.16686407 C248.264246,6.51990707 247.753663,7.01530612 247.343677,7.65306122 L247.343677,7.65306122 L247.195627,5.86506924 L242.754118,5.86506924 L242.754118,7.63028426 L244.553499,7.97193878 L244.553499,16.0919278 L242.845226,16.4335824 L242.845226,18.1874089 L248.983619,18.1874089 Z M262.638411,18.4265671 C264.080952,18.4265671 265.20082,17.8495505 265.998014,16.6955175 L265.998014,16.6955175 L266.225784,18.1874089 L270.416746,18.1874089 L270.416746,16.4335824 L268.708473,16.0919278 L268.708473,0.421373907 L264.027806,0.421373907 L264.027806,2.18658892 L265.838575,2.52824344 L265.838575,7.19752187 C265.458959,6.69642857 265.005318,6.3111182 264.477651,6.04159074 C263.949985,5.77206329 263.333109,5.63729956 262.627023,5.63729956 C261.640021,5.63729956 260.793477,5.91062318 260.087391,6.45727041 C259.381305,7.00391764 258.840352,7.76884414 258.464532,8.75204993 C258.088712,9.73525571 257.900802,10.8797983 257.900802,12.1856778 L257.900802,12.1856778 L257.900802,12.424836 C257.900802,13.624423 258.088712,14.6740616 258.464532,15.5737518 C258.840352,16.4734421 259.381305,17.1738338 260.087391,17.6749271 C260.793477,18.1760204 261.643817,18.4265671 262.638411,18.4265671 Z M263.446993,16.1602587 C262.505545,16.1602587 261.824134,15.8224004 261.402761,15.1466837 C260.981387,14.470967 260.7707,13.5636844 260.7707,12.424836 L260.7707,12.424836 L260.7707,12.1856778 C260.7707,10.9101676 260.987081,9.87761176 261.419843,9.0880102 C261.852606,8.29840865 262.535915,7.90360787 263.46977,7.90360787 C264.001233,7.90360787 264.466263,8.0288812 264.86486,8.27942784 C265.263457,8.52997449 265.588028,8.87922133 265.838575,9.32716837 L265.838575,9.32716837 L265.838575,14.7594752 C265.580436,15.2074223 265.253966,15.5528729 264.859165,15.7958273 C264.464365,16.0387816 263.993641,16.1602587 263.446993,16.1602587 Z M282.215215,18.4265671 C283.657756,18.4265671 284.777624,17.8495505 285.574818,16.6955175 L285.574818,16.6955175 L285.802587,18.1874089 L289.99355,18.1874089 L289.99355,16.4335824 L288.285277,16.0919278 L288.285277,0.421373907 L283.60461,0.421373907 L283.60461,2.18658892 L285.415379,2.52824344 L285.415379,7.19752187 C285.035763,6.69642857 284.582122,6.3111182 284.054455,6.04159074 C283.526789,5.77206329 282.909913,5.63729956 282.203827,5.63729956 C281.216825,5.63729956 280.370281,5.91062318 279.664195,6.45727041 C278.958109,7.00391764 278.417156,7.76884414 278.041336,8.75204993 C277.665516,9.73525571 277.477606,10.8797983 277.477606,12.1856778 L277.477606,12.1856778 L277.477606,12.424836 C277.477606,13.624423 277.665516,14.6740616 278.041336,15.5737518 C278.417156,16.4734421 278.958109,17.1738338 279.664195,17.6749271 C280.370281,18.1760204 281.220621,18.4265671 282.215215,18.4265671 Z M283.023797,16.1602587 C282.082349,16.1602587 281.400938,15.8224004 280.979565,15.1466837 C280.558191,14.470967 280.347504,13.5636844 280.347504,12.424836 L280.347504,12.424836 L280.347504,12.1856778 C280.347504,10.9101676 280.563885,9.87761176 280.996647,9.0880102 C281.42941,8.29840865 282.112719,7.90360787 283.046574,7.90360787 C283.578037,7.90360787 284.043067,8.0288812 284.441664,8.27942784 C284.840261,8.52997449 285.164832,8.87922133 285.415379,9.32716837 L285.415379,9.32716837 L285.415379,14.7594752 C285.15724,15.2074223 284.83077,15.5528729 284.435969,15.7958273 C284.041169,16.0387816 283.570445,16.1602587 283.023797,16.1602587 Z M297.008856,18.4265671 C298.018635,18.4265671 298.897446,18.2880072 299.64529,18.0108874 C300.393134,17.7337676 301.01001,17.3864189 301.495918,16.9688411 L301.495918,16.9688411 L300.607617,15.1694606 C300.136893,15.5035228 299.628207,15.7616618 299.08156,15.9438776 C298.534913,16.1260933 297.927527,16.2172012 297.259402,16.2172012 C296.30277,16.2172012 295.566314,15.9040179 295.050036,15.2776512 C294.533759,14.6512846 294.252843,13.8521927 294.207289,12.8803754 L294.207289,12.8803754 L294.230066,12.8234329 L301.792019,12.8234329 L301.792019,11.1834913 C301.792019,9.46003401 301.357358,8.10480442 300.488038,7.11780248 C299.618717,6.13080053 298.352697,5.63729956 296.689978,5.63729956 C295.634645,5.63729956 294.698892,5.90492894 293.882717,6.44018768 C293.066542,6.97544643 292.424991,7.71190172 291.958063,8.64955357 C291.491135,9.58720542 291.257671,10.6558248 291.257671,11.8554118 L291.257671,11.8554118 L291.257671,12.3337281 C291.257671,13.5181305 291.494931,14.5696672 291.969452,15.4883382 C292.443972,16.4070092 293.110198,17.1263818 293.96813,17.6464559 C294.826063,18.16653 295.839638,18.4265671 297.008856,18.4265671 Z M299.047394,10.8076713 L294.27562,10.8076713 L294.241454,10.7507289 C294.340154,9.90798105 294.603987,9.20569121 295.032954,8.64385933 C295.46192,8.08202745 296.02565,7.80111152 296.724144,7.80111152 C297.521337,7.80111152 298.107844,8.05165816 298.483664,8.55275146 C298.859484,9.05384475 299.047394,9.7067845 299.047394,10.5115707 L299.047394,10.5115707 L299.047394,10.8076713 Z M310.743367,18.1874089 L314.752114,7.83527697 L316.095955,7.63028426 L316.095955,5.86506924 L310.470044,5.86506924 L310.470044,7.63028426 L312.030266,7.85805394 L309.786735,14.0420007 L309.44508,15.0214103 L309.376749,15.0214103 L309.080649,14.0420007 L306.859894,7.85805394 L308.283455,7.63028426 L308.283455,5.86506924 L302.646155,5.86506924 L302.646155,7.63028426 L303.955831,7.82388848 L307.953189,18.1874089 L310.743367,18.1874089 Z M322.678499,18.4265671 C323.688277,18.4265671 324.567089,18.2880072 325.314933,18.0108874 C326.062776,17.7337676 326.679653,17.3864189 327.165561,16.9688411 L327.165561,16.9688411 L326.277259,15.1694606 C325.806535,15.5035228 325.29785,15.7616618 324.751203,15.9438776 C324.204555,16.1260933 323.59717,16.2172012 322.929045,16.2172012 C321.972413,16.2172012 321.235957,15.9040179 320.719679,15.2776512 C320.203401,14.6512846 319.922485,13.8521927 319.876931,12.8803754 L319.876931,12.8803754 L319.899708,12.8234329 L327.461662,12.8234329 L327.461662,11.1834913 C327.461662,9.46003401 327.027001,8.10480442 326.15768,7.11780248 C325.288359,6.13080053 324.02234,5.63729956 322.359621,5.63729956 C321.304288,5.63729956 320.368534,5.90492894 319.55236,6.44018768 C318.736185,6.97544643 318.094634,7.71190172 317.627706,8.64955357 C317.160778,9.58720542 316.927314,10.6558248 316.927314,11.8554118 L316.927314,11.8554118 L316.927314,12.3337281 C316.927314,13.5181305 317.164574,14.5696672 317.639094,15.4883382 C318.113615,16.4070092 318.779841,17.1263818 319.637773,17.6464559 C320.495706,18.16653 321.509281,18.4265671 322.678499,18.4265671 Z M324.717037,10.8076713 L319.945262,10.8076713 L319.911097,10.7507289 C320.009797,9.90798105 320.27363,9.20569121 320.702597,8.64385933 C321.131563,8.08202745 321.695293,7.80111152 322.393786,7.80111152 C323.19098,7.80111152 323.777487,8.05165816 324.153307,8.55275146 C324.529127,9.05384475 324.717037,9.7067845 324.717037,10.5115707 L324.717037,10.5115707 L324.717037,10.8076713 Z M335.228608,18.1874089 L335.228608,16.4335824 L333.520335,16.0919278 L333.520335,0.421373907 L328.82828,0.421373907 L328.82828,2.18658892 L330.650437,2.52824344 L330.650437,16.0919278 L328.930776,16.4335824 L328.930776,18.1874089 L335.228608,18.1874089 Z M342.038921,18.4265671 C343.215731,18.4265671 344.227408,18.1608358 345.073952,17.6293732 C345.920496,17.0979106 346.571538,16.3614553 347.027077,15.4200073 C347.482617,14.4785593 347.710386,13.389061 347.710386,12.1515124 L347.710386,12.1515124 L347.710386,11.9123542 C347.710386,10.6899903 347.482617,9.60618622 347.027077,8.66094206 C346.571538,7.71569789 345.918598,6.97544643 345.068258,6.44018768 C344.217918,5.90492894 343.200547,5.63729956 342.016144,5.63729956 C340.846927,5.63729956 339.837148,5.90682702 338.986808,6.44588192 C338.136467,6.98493683 337.483528,7.72518829 337.027988,8.6666363 C336.572449,9.60808431 336.344679,10.6899903 336.344679,11.9123542 L336.344679,11.9123542 L336.344679,12.1515124 C336.344679,13.3814687 336.572449,14.4671708 337.027988,15.4086188 C337.483528,16.3500668 338.136467,17.0884202 338.986808,17.6236789 C339.837148,18.1589377 340.854519,18.4265671 342.038921,18.4265671 Z M342.038921,16.2172012 C341.074696,16.2172012 340.362916,15.8394831 339.903581,15.084047 C339.444245,14.3286109 339.214577,13.3510994 339.214577,12.1515124 L339.214577,12.1515124 L339.214577,11.9123542 C339.214577,10.7355442 339.444245,9.765625 339.903581,9.00259657 C340.362916,8.23956815 341.067104,7.85805394 342.016144,7.85805394 C342.972777,7.85805394 343.684557,8.23956815 344.151485,9.00259657 C344.618413,9.765625 344.851877,10.7355442 344.851877,11.9123542 L344.851877,11.9123542 L344.851877,12.1515124 C344.851877,13.3510994 344.620311,14.3286109 344.157179,15.084047 C343.694048,15.8394831 342.987962,16.2172012 342.038921,16.2172012 Z M355.386224,22.9250182 L355.386224,21.1598032 L353.632398,20.8181487 L353.632398,16.9688411 C354.399223,17.9406584 355.473536,18.4265671 356.855339,18.4265671 C357.849933,18.4265671 358.704069,18.1760204 359.417748,17.6749271 C360.131426,17.1738338 360.678073,16.4734421 361.05769,15.5737518 C361.437306,14.6740616 361.627114,13.624423 361.627114,12.424836 L361.627114,12.424836 L361.627114,12.1856778 C361.627114,10.872206 361.439204,9.72576531 361.063384,8.74635569 C360.687564,7.76694606 360.142815,7.00391764 359.429136,6.45727041 C358.715458,5.91062318 357.857526,5.63729956 356.855339,5.63729956 C356.111291,5.63729956 355.467842,5.78345177 354.924991,6.0757562 C354.38214,6.36806062 353.91711,6.78374028 353.529902,7.32279519 L353.529902,7.32279519 L353.347686,5.86506924 L348.96312,5.86506924 L348.96312,7.63028426 L350.773888,7.97193878 L350.773888,20.8181487 L349.11117,21.1598032 L349.11117,22.9250182 L355.386224,22.9250182 Z M355.989814,16.2172012 C354.911704,16.2172012 354.125899,15.7844388 353.632398,14.918914 L353.632398,14.918914 L353.632398,9.27022595 C353.86776,8.83746356 354.182841,8.50150328 354.577642,8.26234512 C354.972443,8.02318695 355.435575,7.90360787 355.967037,7.90360787 C356.908485,7.90360787 357.608877,8.30030673 358.068212,9.09370445 C358.527548,9.88710216 358.757216,10.91776 358.757216,12.1856778 L358.757216,12.1856778 L358.757216,12.424836 C358.757216,13.5636844 358.531344,14.4804574 358.079601,15.1751549 C357.627858,15.8698524 356.931262,16.2172012 355.989814,16.2172012 Z M369.280175,18.4265671 C370.289954,18.4265671 371.168765,18.2880072 371.916609,18.0108874 C372.664453,17.7337676 373.281329,17.3864189 373.767238,16.9688411 L373.767238,16.9688411 L372.878936,15.1694606 C372.408212,15.5035228 371.899526,15.7616618 371.352879,15.9438776 C370.806232,16.1260933 370.198846,16.2172012 369.530722,16.2172012 C368.574089,16.2172012 367.837634,15.9040179 367.321356,15.2776512 C366.805078,14.6512846 366.524162,13.8521927 366.478608,12.8803754 L366.478608,12.8803754 L366.501385,12.8234329 L374.063338,12.8234329 L374.063338,11.1834913 C374.063338,9.46003401 373.628678,8.10480442 372.759357,7.11780248 C371.890036,6.13080053 370.624016,5.63729956 368.961297,5.63729956 C367.905965,5.63729956 366.970211,5.90492894 366.154036,6.44018768 C365.337861,6.97544643 364.69631,7.71190172 364.229382,8.64955357 C363.762454,9.58720542 363.528991,10.6558248 363.528991,11.8554118 L363.528991,11.8554118 L363.528991,12.3337281 C363.528991,13.5181305 363.766251,14.5696672 364.240771,15.4883382 C364.715291,16.4070092 365.381517,17.1263818 366.23945,17.6464559 C367.097382,18.16653 368.110957,18.4265671 369.280175,18.4265671 Z M371.318714,10.8076713 L366.546939,10.8076713 L366.512773,10.7507289 C366.611474,9.90798105 366.875307,9.20569121 367.304273,8.64385933 C367.733239,8.08202745 368.296969,7.80111152 368.995463,7.80111152 C369.792657,7.80111152 370.379164,8.05165816 370.754984,8.55275146 C371.130804,9.05384475 371.318714,9.7067845 371.318714,10.5115707 L371.318714,10.5115707 L371.318714,10.8076713 Z M382.103608,18.1874089 L382.103608,16.4335824 L380.395335,16.0919278 L380.395335,9.66882289 C380.615513,9.25124514 380.896429,8.92477527 381.238083,8.68941327 C381.579738,8.45405126 382.0125,8.35155491 382.53637,8.3819242 L382.53637,8.3819242 L384.142147,8.47303207 L384.472413,5.81951531 C384.100389,5.69803814 383.679015,5.63729956 383.208291,5.63729956 C381.955558,5.63729956 380.998925,6.31301628 380.338393,7.66444971 L380.338393,7.66444971 L380.315616,7.41390306 L380.167566,5.86506924 L375.726057,5.86506924 L375.726057,7.63028426 L377.525437,7.97193878 L377.525437,16.0919278 L375.828553,16.4335824 L375.828553,18.1874089 L382.103608,18.1874089 Z" id="path-2"></path><path d="M67.1345845,18.5111955 L67.1345845,16.757369 L64.9935496,16.4157145 L64.9935496,8.23878301 L67.7381742,8.23878301 L67.7381742,6.1888559 L64.9935496,6.1888559 L64.9935496,4.74251844 C64.9935496,3.43663894 65.5933431,2.78369919 66.79293,2.78369919 C67.0206997,2.78369919 67.2522655,2.79698576 67.4876276,2.82355889 C67.7229896,2.85013202 67.9203899,2.88239939 68.0798287,2.920361 L68.0798287,2.920361 L68.3645408,0.767937532 C68.0684402,0.692014306 67.7419704,0.629377644 67.3851312,0.580027547 C67.028292,0.53067745 66.6942298,0.506002401 66.3829446,0.506002401 C65.0391035,0.506002401 63.9932611,0.874230049 63.2454173,1.61068535 C62.4975735,2.34714064 62.1236516,3.39108501 62.1236516,4.74251844 L62.1236516,4.74251844 L62.1236516,6.1888559 L60.2445517,6.1888559 L60.2445517,8.23878301 L62.1236516,8.23878301 L62.1236516,16.4157145 L60.4039905,16.757369 L60.4039905,18.5111955 L67.1345845,18.5111955 Z M74.3776603,18.7503537 C75.1368926,18.7503537 75.8145074,18.5852207 76.4105047,18.2549547 C77.0065021,17.9246886 77.498105,17.4520665 77.8853134,16.8370884 L77.8853134,16.8370884 L78.0789176,18.5111955 L82.0762755,18.5111955 L82.0762755,16.757369 L80.6185496,16.4157145 L80.6185496,6.1888559 L76.1998178,6.1888559 L76.1998178,7.95407091 L77.7486516,8.29572543 L77.7486516,15.0604849 C77.2247813,16.0095252 76.3478681,16.4840454 75.1179118,16.4840454 C74.4118258,16.4840454 73.8898536,16.2695623 73.5519953,15.8405961 C73.2141369,15.4116298 73.0452077,14.6656841 73.0452077,13.602759 L73.0452077,13.602759 L73.0452077,6.1888559 L68.7859147,6.1888559 L68.7859147,7.95407091 L70.1753098,8.29572543 L70.1753098,13.579982 C70.1753098,15.3489932 70.5454355,16.6529746 71.285687,17.4919262 C72.0259384,18.3308779 73.0565962,18.7503537 74.3776603,18.7503537 Z M89.5015671,18.5111955 L89.5015671,16.757369 L87.9413448,16.4157145 L87.9413448,9.62817806 C88.1994837,9.18782334 88.5373421,8.84427074 88.9549198,8.59752026 C89.3724976,8.35076977 89.8546101,8.22739453 90.4012573,8.22739453 C91.1377126,8.22739453 91.6919521,8.42289684 92.0639759,8.81390145 C92.4359998,9.20490607 92.6220117,9.86733622 92.6220117,10.8011919 L92.6220117,10.8011919 L92.6220117,16.4157145 L91.0162354,16.757369 L91.0162354,18.5111955 L97.2001822,18.5111955 L97.2001822,16.757369 L95.4919096,16.4157145 L95.4919096,10.7784149 C95.4919096,9.13088092 95.1388666,7.9161093 94.4327806,7.13410007 C93.7266946,6.35209084 92.7396927,5.96108622 91.4717748,5.96108622 C90.6973579,5.96108622 90.0045584,6.13760772 89.3933765,6.49065072 C88.7821945,6.84369373 88.2716108,7.33909278 87.8616254,7.97684788 L87.8616254,7.97684788 L87.7135751,6.1888559 L83.2720663,6.1888559 L83.2720663,7.95407091 L85.0714468,8.29572543 L85.0714468,16.4157145 L83.3631742,16.757369 L83.3631742,18.5111955 L89.5015671,18.5111955 Z M104.067438,18.7503537 C105.646641,18.7503537 106.832942,18.3593491 107.626339,17.5773399 C108.419737,16.7953306 108.884767,15.8007364 109.021429,14.5935571 L109.021429,14.5935571 L108.987263,14.5252262 L106.504574,14.5252262 C106.375504,15.1553889 106.102181,15.6488899 105.684603,16.0057291 C105.267025,16.3625682 104.731766,16.5409878 104.078827,16.5409878 C103.258856,16.5409878 102.588833,16.2031295 102.068759,15.5274128 C101.548685,14.851696 101.288648,13.8608979 101.288648,12.5550184 L101.288648,12.5550184 L101.288648,12.1564215 C101.288648,10.9568345 101.546787,9.98311914 102.063065,9.23527536 C102.579343,8.48743158 103.312002,8.11350969 104.261042,8.11350969 C104.648251,8.11350969 105.00509,8.17994251 105.33156,8.31280816 C105.65803,8.44567381 105.927557,8.62219531 106.140142,8.84237266 L106.140142,8.84237266 L106.561516,11.0175731 L108.748105,11.0175731 L108.736716,7.72630123 C108.235623,7.22520794 107.594072,6.80573211 106.812063,6.46787376 C106.030053,6.1300154 105.111382,5.96108622 104.05605,5.96108622 C102.902017,5.96108622 101.901728,6.22871559 101.055184,6.76397434 C100.20864,7.29923309 99.5575984,8.0337903 99.102059,8.96764599 C98.6465197,9.90150167 98.41875,10.9644268 98.41875,12.1564215 L98.41875,12.1564215 L98.41875,12.5550184 C98.41875,13.7697901 98.6484178,14.8422056 99.1077533,15.7722652 C99.5670888,16.7023247 100.220029,17.4311877 101.066573,17.9588541 C101.913116,18.4865205 102.913405,18.7503537 104.067438,18.7503537 Z M115.262318,18.7275767 C115.657119,18.7275767 116.0709,18.6934113 116.503663,18.6250804 C116.936425,18.5567495 117.316041,18.4732339 117.642511,18.3745337 L117.642511,18.3745337 L117.357799,16.3587721 C117.190768,16.3967337 116.976285,16.4327972 116.714349,16.4669627 C116.452414,16.5011281 116.215154,16.5182109 116.002569,16.5182109 C115.630545,16.5182109 115.336343,16.4005299 115.119962,16.1651679 C114.903581,15.9298059 114.79539,15.5501897 114.79539,15.0263195 L114.79539,15.0263195 L114.79539,8.23878301 L117.232526,8.23878301 L117.232526,6.1888559 L114.79539,6.1888559 L114.79539,3.19368462 L111.93688,3.19368462 L111.93688,6.1888559 L110.1375,6.1888559 L110.1375,8.23878301 L111.93688,8.23878301 L111.93688,15.0263195 C111.93688,16.3170143 112.229185,17.2565642 112.813794,17.8449692 C113.398403,18.4333742 114.214577,18.7275767 115.262318,18.7275767 Z M123.621465,3.39867733 L123.621465,0.745160564 L120.637682,0.745160564 L120.637682,3.39867733 L123.621465,3.39867733 Z M125.318349,18.5111955 L125.318349,16.757369 L123.621465,16.4157145 L123.621465,6.1888559 L118.940798,6.1888559 L118.940798,7.95407091 L120.751567,8.29572543 L120.751567,16.4157145 L119.043294,16.757369 L119.043294,18.5111955 L125.318349,18.5111955 Z M132.356432,18.7503537 C133.533242,18.7503537 134.544919,18.4846224 135.391463,17.9531598 C136.238007,17.4216973 136.889049,16.685242 137.344588,15.7437939 C137.800128,14.8023459 138.027897,13.7128476 138.027897,12.475299 L138.027897,12.475299 L138.027897,12.2361409 C138.027897,11.0137769 137.800128,9.92997288 137.344588,8.98472871 C136.889049,8.03948454 136.236109,7.29923309 135.385769,6.76397434 C134.535429,6.22871559 133.518058,5.96108622 132.333655,5.96108622 C131.164438,5.96108622 130.154659,6.23061367 129.304319,6.76966858 C128.453978,7.30872349 127.801039,8.04897495 127.345499,8.99042295 C126.88996,9.93187096 126.66219,11.0137769 126.66219,12.2361409 L126.66219,12.2361409 L126.66219,12.475299 C126.66219,13.7052553 126.88996,14.7909575 127.345499,15.7324055 C127.801039,16.6738535 128.453978,17.4122068 129.304319,17.9474656 C130.154659,18.4827243 131.17203,18.7503537 132.356432,18.7503537 Z M132.356432,16.5409878 C131.392207,16.5409878 130.680427,16.1632698 130.221091,15.4078337 C129.761756,14.6523976 129.532088,13.674886 129.532088,12.475299 L129.532088,12.475299 L129.532088,12.2361409 C129.532088,11.0593309 129.761756,10.0894117 130.221091,9.32638323 C130.680427,8.56335481 131.384615,8.18184059 132.333655,8.18184059 C133.290288,8.18184059 134.002068,8.56335481 134.468996,9.32638323 C134.935924,10.0894117 135.169388,11.0593309 135.169388,12.2361409 L135.169388,12.2361409 L135.169388,12.475299 C135.169388,13.674886 134.937822,14.6523976 134.47469,15.4078337 C134.011559,16.1632698 133.305473,16.5409878 132.356432,16.5409878 Z M145.680958,18.5111955 L145.680958,16.757369 L144.120736,16.4157145 L144.120736,9.62817806 C144.378875,9.18782334 144.716733,8.84427074 145.134311,8.59752026 C145.551889,8.35076977 146.034001,8.22739453 146.580649,8.22739453 C147.317104,8.22739453 147.871344,8.42289684 148.243367,8.81390145 C148.615391,9.20490607 148.801403,9.86733622 148.801403,10.8011919 L148.801403,10.8011919 L148.801403,16.4157145 L147.195627,16.757369 L147.195627,18.5111955 L153.379574,18.5111955 L153.379574,16.757369 L151.671301,16.4157145 L151.671301,10.7784149 C151.671301,9.13088092 151.318258,7.9161093 150.612172,7.13410007 C149.906086,6.35209084 148.919084,5.96108622 147.651166,5.96108622 C146.876749,5.96108622 146.18395,6.13760772 145.572768,6.49065072 C144.961586,6.84369373 144.451002,7.33909278 144.041017,7.97684788 L144.041017,7.97684788 L143.892966,6.1888559 L139.451458,6.1888559 L139.451458,7.95407091 L141.250838,8.29572543 L141.250838,16.4157145 L139.542566,16.757369 L139.542566,18.5111955 L145.680958,18.5111955 Z" id="path-3"></path><path d="M398.744461,22.3100401 L399.302496,20.7042638 C398.573633,20.4461249 398.059254,20.0000759 397.759357,19.366117 C397.45946,18.732158 397.309512,17.9444546 397.309512,17.0030066 L397.309512,17.0030066 L397.309512,14.6797558 C397.309512,13.9053389 397.142481,13.2125395 396.808418,12.6013575 C396.474356,11.9901755 395.973263,11.506165 395.305138,11.1493258 C395.973263,10.8076713 396.474356,10.3331511 396.808418,9.72576531 C397.142481,9.11837949 397.309512,8.41608965 397.309512,7.61889577 L397.309512,7.61889577 L397.309512,5.29564504 C397.309512,4.35419704 397.45946,3.56459548 397.759357,2.92684038 C398.059254,2.28908528 398.573633,1.8449344 399.302496,1.59438776 L399.302496,1.59438776 L398.744461,0 C397.263958,0.417577745 396.210523,1.0800079 395.584156,1.98729045 C394.95779,2.89457301 394.644606,3.99735787 394.644606,5.29564504 L394.644606,5.29564504 L394.644606,7.61889577 C394.644606,8.42368197 394.466187,9.04435435 394.109348,9.4809129 C393.752509,9.91747145 393.205861,10.1357507 392.469406,10.1357507 L392.469406,10.1357507 L392.469406,12.1742894 C393.205861,12.1742894 393.752509,12.3944667 394.109348,12.8348214 C394.466187,13.2751761 394.644606,13.8901543 394.644606,14.6797558 L394.644606,14.6797558 L394.644606,17.0030066 C394.644606,18.3012937 394.95779,19.4059767 395.584156,20.3170554 C396.210523,21.2281341 397.263958,21.8924623 398.744461,22.3100401 L398.744461,22.3100401 Z" id="path-4"></path><path d="M270.407635,53.7969206 C271.880545,53.3793428 272.932082,52.7150146 273.562245,51.8039359 C274.192408,50.8928571 274.507489,49.7881742 274.507489,48.489887 L274.507489,48.489887 L274.507489,46.1666363 C274.507489,45.3770347 274.682112,44.7620566 275.031359,44.3217019 C275.380606,43.8813472 275.927253,43.6611698 276.671301,43.6611698 L276.671301,43.6611698 L276.671301,41.6226312 C275.927253,41.6226312 275.380606,41.4043519 275.031359,40.9677934 C274.682112,40.5312348 274.507489,39.9105624 274.507489,39.1057762 L274.507489,39.1057762 L274.507489,36.7825255 C274.507489,35.4842383 274.192408,34.3814535 273.562245,33.4741709 C272.932082,32.5668884 271.880545,31.9044582 270.407635,31.4868805 L270.407635,31.4868805 L269.849599,33.0812682 C270.563277,33.3318149 271.071963,33.7759657 271.375656,34.4137208 C271.679349,35.0514759 271.831195,35.8410775 271.831195,36.7825255 L271.831195,36.7825255 L271.831195,39.1057762 C271.831195,39.9181548 272.003921,40.6280369 272.349371,41.2354227 C272.694822,41.8428086 273.224387,42.3135326 273.938065,42.6475948 C273.224387,42.9816569 272.694822,43.452381 272.349371,44.0597668 C272.003921,44.6671526 271.831195,45.3694424 271.831195,46.1666363 L271.831195,46.1666363 L271.831195,48.489887 C271.831195,49.431335 271.679349,50.2190385 271.375656,50.8529974 C271.071963,51.4869564 270.563277,51.9330053 269.849599,52.1911443 L269.849599,52.1911443 L270.407635,53.7969206 Z" id="path-5"></path><path d="M192.72223,48.7472668 C194.392541,48.7472668 195.66995,48.2860332 196.554455,47.363566 C197.438961,46.4410988 197.881214,45.2016521 197.881214,43.6452259 L197.881214,43.6452259 L197.881214,34.0333455 L199.691983,33.691691 L199.691983,31.9264759 L192.790561,31.9264759 L192.790561,33.7030794 L195.011316,34.0333455 L195.011316,43.6452259 C195.011316,44.54112 194.791138,45.2396137 194.350784,45.740707 C193.910429,46.2418003 193.299247,46.4923469 192.517238,46.4923469 C191.727636,46.4923469 191.108862,46.258883 190.660915,45.7919552 C190.212968,45.3250273 189.966217,44.54112 189.920663,43.4402332 L189.920663,43.4402332 L187.198816,43.4402332 L187.176039,43.5085641 C187.24437,45.2851676 187.789119,46.6024356 188.810286,47.4603681 C189.831453,48.3183005 191.135435,48.7472668 192.72223,48.7472668 Z M205.454555,33.3955904 L205.454555,30.7420736 L202.470773,30.7420736 L202.470773,33.3955904 L205.454555,33.3955904 Z M207.15144,48.5081086 L207.15144,46.7542821 L205.454555,46.4126276 L205.454555,36.185769 L200.773888,36.185769 L200.773888,37.950984 L202.584657,38.2926385 L202.584657,46.4126276 L200.876385,46.7542821 L200.876385,48.5081086 L207.15144,48.5081086 Z M215.385313,48.7472668 C216.881001,48.7472668 218.044524,48.1987215 218.875884,47.1016308 C219.707243,46.0045402 220.122923,44.5525085 220.122923,42.7455357 L220.122923,42.7455357 L220.122923,42.5063776 C220.122923,41.1853134 219.936911,40.0350765 219.564887,39.0556669 C219.192863,38.0762573 218.653808,37.3151269 217.947722,36.7722759 C217.241636,36.2294248 216.3875,35.9579993 215.385313,35.9579993 C214.664043,35.9579993 214.031982,36.0965592 213.489131,36.3736789 C212.94628,36.6507987 212.488842,37.0437014 212.116819,37.552387 L212.116819,37.552387 L212.116819,30.7420736 L207.44754,30.7420736 L207.44754,32.5072886 L209.258309,32.8489431 L209.258309,48.5081086 L211.72961,48.5081086 L211.95738,46.9706633 C212.336996,47.5476798 212.80772,47.9880345 213.369552,48.2917274 C213.931384,48.5954203 214.603304,48.7472668 215.385313,48.7472668 Z M214.553954,46.4809585 C213.999715,46.4809585 213.517602,46.3537871 213.107617,46.0994442 C212.697631,45.8451014 212.367365,45.4863642 212.116819,45.0232325 L212.116819,45.0232325 L212.116819,39.7617529 C212.359773,39.2910289 212.684345,38.917107 213.090534,38.6399872 C213.496723,38.3628675 213.988326,38.2243076 214.565343,38.2243076 C215.491606,38.2243076 216.171119,38.6134141 216.603881,39.3916272 C217.036644,40.1698403 217.253025,41.2080904 217.253025,42.5063776 L217.253025,42.5063776 L217.253025,42.7455357 C217.253025,43.9071611 217.038542,44.8201379 216.609575,45.4844661 C216.180609,46.1487943 215.495402,46.4809585 214.553954,46.4809585 Z M227.9582,33.8397413 L231.067256,30.8104045 L231.044479,30.7420736 L227.912646,30.7420736 L225.714668,33.8397413 L227.9582,33.8397413 Z M227.798761,48.7472668 C228.80854,48.7472668 229.687351,48.6087069 230.435195,48.3315871 C231.183039,48.0544673 231.799915,47.7071186 232.285824,47.2895408 L232.285824,47.2895408 L231.397522,45.4901603 C230.926798,45.8242225 230.418112,46.0823615 229.871465,46.2645773 C229.324818,46.446793 228.717432,46.5379009 228.049308,46.5379009 C227.092675,46.5379009 226.35622,46.2247176 225.839942,45.5983509 C225.323664,44.9719843 225.042748,44.1728924 224.997194,43.2010751 L224.997194,43.2010751 L225.019971,43.1441327 L232.581924,43.1441327 L232.581924,41.504191 C232.581924,39.7807337 232.147264,38.4255041 231.277943,37.4385022 C230.408622,36.4515002 229.142602,35.9579993 227.479883,35.9579993 C226.424551,35.9579993 225.488797,36.2256286 224.672622,36.7608874 C223.856447,37.2961461 223.214896,38.0326014 222.747968,38.9702533 C222.28104,39.9079051 222.047577,40.9765245 222.047577,42.1761115 L222.047577,42.1761115 L222.047577,42.6544278 C222.047577,43.8388302 222.284837,44.8903669 222.759357,45.8090379 C223.233877,46.7277089 223.900103,47.4470815 224.758036,47.9671556 C225.615968,48.4872297 226.629543,48.7472668 227.798761,48.7472668 Z M229.8373,41.128371 L225.065525,41.128371 L225.031359,41.0714286 C225.13006,40.2286808 225.393893,39.5263909 225.822859,38.964559 C226.251825,38.4027272 226.815555,38.1218112 227.514049,38.1218112 C228.311243,38.1218112 228.89775,38.3723579 229.27357,38.8734512 C229.64939,39.3745445 229.8373,40.0274842 229.8373,40.8322704 L229.8373,40.8322704 L229.8373,41.128371 Z M240.121101,48.7472668 C241.297911,48.7472668 242.309588,48.4815355 243.156132,47.9500729 C244.002676,47.4186103 244.653717,46.682155 245.109257,45.740707 C245.564796,44.799259 245.792566,43.7097607 245.792566,42.4722121 L245.792566,42.4722121 L245.792566,42.2330539 C245.792566,41.01069 245.564796,39.9268859 245.109257,38.9816418 C244.653717,38.0363976 244.000777,37.2961461 243.150437,36.7608874 C242.300097,36.2256286 241.282726,35.9579993 240.098324,35.9579993 C238.929106,35.9579993 237.919327,36.2275267 237.068987,36.7665816 C236.218647,37.3056365 235.565707,38.045888 235.110168,38.987336 C234.654628,39.928784 234.426859,41.01069 234.426859,42.2330539 L234.426859,42.2330539 L234.426859,42.4722121 C234.426859,43.7021684 234.654628,44.7878705 235.110168,45.7293185 C235.565707,46.6707665 236.218647,47.4091199 237.068987,47.9443786 C237.919327,48.4796374 238.936698,48.7472668 240.121101,48.7472668 Z M240.121101,46.5379009 C239.156876,46.5379009 238.445095,46.1601828 237.98576,45.4047467 C237.526424,44.6493106 237.296757,43.6717991 237.296757,42.4722121 L237.296757,42.4722121 L237.296757,42.2330539 C237.296757,41.0562439 237.526424,40.0863247 237.98576,39.3232963 C238.445095,38.5602679 239.149283,38.1787536 240.098324,38.1787536 C241.054956,38.1787536 241.766737,38.5602679 242.233664,39.3232963 C242.700592,40.0863247 242.934056,41.0562439 242.934056,42.2330539 L242.934056,42.2330539 L242.934056,42.4722121 C242.934056,43.6717991 242.70249,44.6493106 242.239359,45.4047467 C241.776227,46.1601828 241.070141,46.5379009 240.121101,46.5379009 Z" id="path-6"></path><path d="M93.558145,48.5081086 L93.558145,46.7542821 L91.8498724,46.4126276 L91.8498724,39.9895226 C92.0700498,39.5719448 92.3509657,39.245475 92.6926203,39.010113 C93.0342748,38.774751 93.4670372,38.6722546 93.9909074,38.7026239 L93.9909074,38.7026239 L95.5966837,38.7937318 L95.9269497,36.140215 C95.5549259,36.0187379 95.133552,35.9579993 94.662828,35.9579993 C93.4100948,35.9579993 92.4534621,36.633716 91.79293,37.9851494 L91.79293,37.9851494 L91.7701531,37.7346028 L91.6221028,36.185769 L87.180594,36.185769 L87.180594,37.950984 L88.9799745,38.2926385 L88.9799745,46.4126276 L87.2830904,46.7542821 L87.2830904,48.5081086 L93.558145,48.5081086 Z M102.634767,48.7472668 C103.644546,48.7472668 104.523357,48.6087069 105.271201,48.3315871 C106.019045,48.0544673 106.635921,47.7071186 107.121829,47.2895408 L107.121829,47.2895408 L106.233528,45.4901603 C105.762804,45.8242225 105.254118,46.0823615 104.707471,46.2645773 C104.160824,46.446793 103.553438,46.5379009 102.885313,46.5379009 C101.928681,46.5379009 101.192225,46.2247176 100.675948,45.5983509 C100.15967,44.9719843 99.8787536,44.1728924 99.8331997,43.2010751 L99.8331997,43.2010751 L99.8559767,43.1441327 L107.41793,43.1441327 L107.41793,41.504191 C107.41793,39.7807337 106.98327,38.4255041 106.113949,37.4385022 C105.244628,36.4515002 103.978608,35.9579993 102.315889,35.9579993 C101.260556,35.9579993 100.324803,36.2256286 99.5086279,36.7608874 C98.6924532,37.2961461 98.050902,38.0326014 97.5839741,38.9702533 C97.1170463,39.9079051 96.8835824,40.9765245 96.8835824,42.1761115 L96.8835824,42.1761115 L96.8835824,42.6544278 C96.8835824,43.8388302 97.1208424,44.8903669 97.5953626,45.8090379 C98.0698828,46.7277089 98.7361091,47.4470815 99.5940415,47.9671556 C100.451974,48.4872297 101.465549,48.7472668 102.634767,48.7472668 Z M104.673305,41.128371 L99.9015306,41.128371 L99.8673652,41.0714286 C99.9660654,40.2286808 100.229899,39.5263909 100.658865,38.964559 C101.087831,38.4027272 101.651561,38.1218112 102.350055,38.1218112 C103.147249,38.1218112 103.733755,38.3723579 104.109575,38.8734512 C104.485395,39.3745445 104.673305,40.0274842 104.673305,40.8322704 L104.673305,40.8322704 L104.673305,41.128371 Z M113.681596,48.7244898 C114.076397,48.7244898 114.490179,48.6903243 114.922941,48.6219934 C115.355703,48.5536625 115.735319,48.470147 116.061789,48.3714468 L116.061789,48.3714468 L115.777077,46.3556851 C115.610046,46.3936467 115.395563,46.4297103 115.133628,46.4638757 C114.871693,46.4980412 114.634433,46.5151239 114.421848,46.5151239 C114.049824,46.5151239 113.755621,46.3974429 113.53924,46.1620809 C113.322859,45.9267189 113.214668,45.5471028 113.214668,45.0232325 L113.214668,45.0232325 L113.214668,38.2356961 L115.651804,38.2356961 L115.651804,36.185769 L113.214668,36.185769 L113.214668,33.1905977 L110.356159,33.1905977 L110.356159,36.185769 L108.556778,36.185769 L108.556778,38.2356961 L110.356159,38.2356961 L110.356159,45.0232325 C110.356159,46.3139274 110.648463,47.2534773 111.233072,47.8418823 C111.817681,48.4302873 112.633856,48.7244898 113.681596,48.7244898 Z M122.701276,48.7472668 C123.460508,48.7472668 124.138123,48.5821337 124.73412,48.2518677 C125.330117,47.9216017 125.82172,47.4489796 126.208929,46.8340015 L126.208929,46.8340015 L126.402533,48.5081086 L130.399891,48.5081086 L130.399891,46.7542821 L128.942165,46.4126276 L128.942165,36.185769 L124.523433,36.185769 L124.523433,37.950984 L126.072267,38.2926385 L126.072267,45.057398 C125.548397,46.0064383 124.671483,46.4809585 123.441527,46.4809585 C122.735441,46.4809585 122.213469,46.2664753 121.87561,45.8375091 C121.537752,45.4085429 121.368823,44.6625972 121.368823,43.599672 L121.368823,43.599672 L121.368823,36.185769 L117.10953,36.185769 L117.10953,37.950984 L118.498925,38.2926385 L118.498925,43.576895 C118.498925,45.3459062 118.869051,46.6498876 119.609302,47.4888393 C120.349554,48.3277909 121.380211,48.7472668 122.701276,48.7472668 Z M138.178225,48.5081086 L138.178225,46.7542821 L136.469953,46.4126276 L136.469953,39.9895226 C136.69013,39.5719448 136.971046,39.245475 137.3127,39.010113 C137.654355,38.774751 138.087117,38.6722546 138.610988,38.7026239 L138.610988,38.7026239 L140.216764,38.7937318 L140.54703,36.140215 C140.175006,36.0187379 139.753632,35.9579993 139.282908,35.9579993 C138.030175,35.9579993 137.073542,36.633716 136.41301,37.9851494 L136.41301,37.9851494 L136.390233,37.7346028 L136.242183,36.185769 L131.800674,36.185769 L131.800674,37.950984 L133.600055,38.2926385 L133.600055,46.4126276 L131.903171,46.7542821 L131.903171,48.5081086 L138.178225,48.5081086 Z M147.812883,48.5081086 L147.812883,46.7542821 L146.25266,46.4126276 L146.25266,39.6250911 C146.510799,39.1847364 146.848658,38.8411838 147.266235,38.5944333 C147.683813,38.3476828 148.165926,38.2243076 148.712573,38.2243076 C149.449028,38.2243076 150.003268,38.4198099 150.375292,38.8108145 C150.747315,39.2018191 150.933327,39.8642493 150.933327,40.798105 L150.933327,40.798105 L150.933327,46.4126276 L149.327551,46.7542821 L149.327551,48.5081086 L155.511498,48.5081086 L155.511498,46.7542821 L153.803225,46.4126276 L153.803225,40.775328 C153.803225,39.127794 153.450182,37.9130224 152.744096,37.1310131 C152.03801,36.3490039 151.051008,35.9579993 149.78309,35.9579993 C149.008673,35.9579993 148.315874,36.1345208 147.704692,36.4875638 C147.09351,36.8406068 146.582926,37.3360058 146.172941,37.9737609 L146.172941,37.9737609 L146.024891,36.185769 L141.583382,36.185769 L141.583382,37.950984 L143.382762,38.2926385 L143.382762,46.4126276 L141.67449,46.7542821 L141.67449,48.5081086 L147.812883,48.5081086 Z M173.209202,39.5339832 L173.209202,37.2335095 L163.301221,37.2335095 L163.301221,39.5339832 L173.209202,39.5339832 Z M173.209202,44.3740889 L173.209202,42.0736152 L163.301221,42.0736152 L163.301221,44.3740889 L173.209202,44.3740889 Z" id="path-7"></path><path d="M254.128936,39.6159803 L254.128936,37.4931669 L251.842128,37.4931669 L251.842128,39.6159803 L254.128936,39.6159803 Z M252.334111,50.4578171 C252.838241,50.0204993 253.2543,49.476889 253.582289,48.8269862 C253.910277,48.1770833 254.074271,47.5211067 254.074271,46.8590561 L254.074271,46.8590561 L254.083382,45.2100036 L251.942347,45.2100036 L251.942347,46.9410532 C251.942347,47.4816266 251.875534,47.9796829 251.74191,48.4352223 C251.608285,48.8907617 251.410884,49.3311164 251.149708,49.7562864 L251.149708,49.7562864 L252.334111,50.4578171 Z" id="path-8"></path></defs><g id="Page-1" stroke="none" stroke-width="1" fill="none" fill-rule="evenodd"><g id="Group" transform="translate(-4.000000, -155.000000)" fill-rule="nonzero"><g id="Group-2" transform="translate(4.936000, 155.404297)"><g id="//"><use fill="#FFFFFF" xlink:href="#path-1"></use><use fill="#00D084" xlink:href="#path-1"></use></g><g id="Front-enddeveloper"><use fill="#FFFFFF" xlink:href="#path-2"></use><use fill="#A19F9F" xlink:href="#path-2"></use></g><g id="function"><use fill="#FFFFFF" xlink:href="#path-3"></use><use fill="#484848" xlink:href="#path-3"></use></g><g id="{"><use fill="#FFFFFF" xlink:href="#path-4"></use><use fill="#484848" xlink:href="#path-4"></use></g><g id="}"><use fill="#FFFFFF" xlink:href="#path-5"></use><use fill="#484848" xlink:href="#path-5"></use></g><g id="Jibéo"><use fill="#FFFFFF" xlink:href="#path-6"></use><use fill="#00D084" xlink:href="#path-6"></use></g><g id="return="><use fill="#FFFFFF" xlink:href="#path-7"></use><use fill="#484848" xlink:href="#path-7"></use></g><g id=";"><use fill="#FFFFFF" xlink:href="#path-8"></use><use fill="#484848" xlink:href="#path-8"></use></g></g></g></g></svg> 