<?xml version="1.0" encoding="UTF-8"?> <svg xmlns="http://www.w3.org/2000/svg" viewBox="0 0 726.9 485.97"><defs><style>.cls-1{fill:#242424;}.cls-2{fill:#00d084;}</style></defs><title>logo-coul5</title><g id="Layer_2" data-name="Layer 2"><g id="Calque_1" data-name="Calque 1"><path class="cls-1" d="M198.72,0,168.05,354.49c-6.33,73.38-31.16,125.21-93.69,131-47.83,4.43-70.2-22.23-73.88-62-3.13-33.89,8.51-68.15,50-72,11.33-1.05,36.32-.88,39.14,29.56a92.36,92.36,0,0,1-.7,19.87c-6.41-9.81-18.38-11.17-25.94-10.48C42.88,392.32,34.91,411.39,36.64,430c2,21.61,15.73,32.71,33.77,31,15.94-1.48,27.2-12.42,32.18-63.89L136,40.47C101.15,61.53,81.94,101,86.8,153.49c2.18,23.58,7.3,28.55,9,32.85-27.7,2.57-46-8.12-49.09-41C40.27,76.08,111.85,8,181.94,1.55Z"></path><path class="cls-1" d="M267.42,174.62,255.69,309.68a63.17,63.17,0,0,0-.18,12.62c1,10.94,5.67,14.06,15,13.19,13-1.21,23.67-17.17,26.87-37.16l14-1.3C298.29,362.48,266,374.13,248,375.8c-20,1.86-37-10.75-40.07-43.58a149.74,149.74,0,0,1,.32-25.64l11.1-127.52Z"></path><path class="cls-1" d="M315,99.29,363.7,86.9l-7.89,89.4c12.79-11,19.61-13.64,26.3-14.26,23.37-2.16,41.06,14.33,45.66,63.95,4.23,45.71-8.48,134-79.26,140.51-30.71,2.85-48.48-14.42-51.37-45.67a112,112,0,0,1,.28-22.49Zm57.71,92.37c-4.67.43-15.84,3.43-19,8.85L344.5,301.45a44.67,44.67,0,0,0-.17,9.08c1.05,11.33,7.34,17.45,19.36,16.33,21.7-2,34-58.31,30.21-99.33C392.12,208.39,384.74,190.55,372.72,191.67Z"></path><path class="cls-1" d="M518.41,317.67c26.37-2.44,40.81-21.11,55.44-44.93l11.35-1.05c-15.7,37.71-40.72,76.67-85.12,80.78-31.39,2.91-53.75-13.15-57.84-57.3-4.12-44.54,9-139.53,77.41-145.87,29.72-2.75,38.39,14.57,40.2,34.11,4.09,44.15-29.49,81.53-69.3,88,.17,5.5.35,11,.78,15.69C493.79,313.64,502.38,319.15,518.41,317.67Zm5.84-147.91c-16.7,1.54-29.29,43.69-32.75,82.63C517.34,248,537,216.65,534.07,185,533.16,175.23,530.59,169.18,524.24,169.76Zm-4.09-117,35-3.24L521.64,127l-25,2.32Z"></path><path class="cls-2" d="M696,184.59c10.69-4.54,17.52-21.72,20.21-29.06l10.68-1c-5.16,17-12.64,41.76-28.92,55.08,3.34,76.13-26.63,127-68.7,130.87-31.05,2.88-55-12.24-59.13-56.78-4.16-44.93,9.94-140,78.72-146.38C674.9,134.93,690.52,150.82,696,184.59Zm-25.45,34.27c-6.2-1.4-9.74-7-10.69-17.14-1-10.94,2.68-18.37,8.44-21.66-2.41-15.15-6.26-20.31-14.61-19.53-23.7,2.19-38,73.65-34.42,111.94,2.39,25.78,7.28,31.24,20,30.07C655.6,301,669.45,265.07,670.56,218.87Z"></path><path class="cls-1" d="M244.65,93.55c14.69-1.36,28,11.59,29.6,28.78s-9.16,32-23.85,33.34-27.64-11.23-29.24-28.43S230,94.9,244.65,93.55Z"></path></g></g></svg> 