<?xml version="1.0" encoding="UTF-8"?> <svg xmlns="http://www.w3.org/2000/svg" version="1.1" id="fcaf27ad-0cd1-4b30-b749-00e238214d87" x="0" y="0" viewBox="0 0 400 309.579" xml:space="preserve"><style>.st0{fill:#3f3d56}.st1{fill:#4560e6}.st2{fill:#3d3d99}.st3{fill:#e2e2e2}.st5{fill:#2f2e41}.st6{fill:#f9d4d4}.st7{fill:#d0cde1}</style><ellipse class="st0" cx="306.207" cy="238.343" rx="21.299" ry="43.458"></ellipse><path class="st1" d="M304.241 309.476c8.53-51.18.086-102.176 0-102.684l-1.659.281c.086.506 8.482 51.234 0 102.127l1.659.276z"></path><path transform="rotate(-61.856 296.708 234.884)" class="st1" d="M295.877 223.97h1.683v21.844h-1.683z"></path><path transform="rotate(-28.159 316.997 240.05)" class="st1" d="M306.061 239.198h21.841v1.683h-21.841z"></path><ellipse class="st2" cx="357.382" cy="169.564" rx="41.658" ry="84.998"></ellipse><path class="st1" d="M352.742 308.561c16.662-99.971.168-199.577 0-200.572l-1.659.281c.168.992 16.614 100.331 0 200.015l1.659.276z"></path><path transform="rotate(-61.856 338.782 162.802)" class="st1" d="M337.952 141.446h1.683v42.725h-1.683z"></path><path transform="rotate(-28.156 378.543 172.91)" class="st1" d="M357.196 172.075h42.725v1.683h-42.725z"></path><path class="st3" d="M260.632 308.828H39.053a3.077 3.077 0 01-3.074-3.074V165.742a3.077 3.077 0 013.074-3.074h221.579a3.077 3.077 0 013.074 3.074v140.012a3.077 3.077 0 01-3.074 3.074z"></path><path d="M59.43 179.635a1.318 1.318 0 00-1.317 1.317v109.592c.001.727.59 1.317 1.317 1.317h180.825a1.318 1.318 0 001.317-1.317V180.952a1.318 1.318 0 00-1.317-1.317H59.43z" fill="#fff"></path><path class="st3" d="M55.58 200.917h186.431v6.945H55.58zM55.58 234.869h186.431v6.945H55.58zM83.334 216.35h77.934v6.945H83.334zM55.58 270.749h186.431v6.945H55.58z"></path><path class="st3" d="M79.861 179.196h6.945v95.797h-6.945zM209.495 179.196h6.945v59.531h-6.945zM157.024 179.196h6.945v113.105h-6.945zM117.285 236.026h6.945v56.275h-6.945z"></path><circle class="st2" cx="160.496" cy="239.219" r="8.874"></circle><path class="st0" d="M399.827 309.579H0v-.958h400z"></path><path class="st2" d="M162.095 220.75l-17.293-29.542-17.294-29.541 34.231-.206 34.23-.206-16.937 29.747z"></path><path class="st2" d="M161.56 77.027c-30.232 0-54.739 24.508-54.739 54.739s24.508 54.739 54.739 54.739 54.739-24.507 54.739-54.739-24.507-54.739-54.739-54.739zm.44 74.035c-10.847 0-19.64-8.793-19.64-19.64s8.793-19.64 19.64-19.64 19.64 8.793 19.64 19.64-8.793 19.64-19.64 19.64z"></path><path class="st5" d="M160.294.281s-11.713-3.299-15.177 12.703-.825 24.086-.825 24.086l26.148-3.052s7.423-28.87-10.146-33.737z"></path><path class="st6" d="M142.77 69.59s-17.181 1.711-14.121 8.648c3.06 6.936 3.06 7.548 3.06 7.548l15.097 26.929 4.896-5.1s-5.508-12.037-5.508-15.913-5.712-10.609-5.712-10.609l9.997-.816-7.709-10.687zM189.852 77.83l5.712 12.445s4.284 4.284 8.976 21.421 5.712 16.525 5.712 16.525l-7.14 1.428s-7.956-18.565-10.609-19.993c-2.652-1.428-5.916-14.485-5.916-14.485l-9.384-11.833 2.856-6.324 9.793.816z"></path><path class="st5" d="M182.916 63.549l8.772 16.321s-11.017-5.1-12.649 6.12l-9.997-7.752s-13.873 4.488-22.237 2.856c0 0 2.448-7.752-6.324-11.221l19.789-2.448-.816-4.284 2.04-4.08 21.422 4.488zM148.03 109.044s-5.508-.816-4.08 4.08l2.856 9.792s-3.672 9.997 2.04 7.752c5.712-2.244 9.384-16.117 9.384-16.117s2.448-10.609 0-10.609-10.201-1.632-9.384 0c.816 1.633-.816 5.102-.816 5.102zM209.641 125.364s-7.14-1.836-8.772 1.02-1.224 12.241-1.224 12.445 2.448 2.244 3.264 2.244 5.916 9.18 12.853 5.916c6.936-3.264-6.121-21.625-6.121-21.625z"></path><circle class="st6" cx="158.23" cy="17.238" r="7.956"></circle><path class="st6" d="M164.759 18.871s1.632 8.568 3.06 9.792-10.813 3.06-10.813 3.06 1.836-5.916-.408-8.976 8.161-3.876 8.161-3.876z"></path><path class="st7" d="M186.18 67.425c-1.389 0-4.927-.575-8.893-1.316a534.29 534.29 0 01-10.15-2.018c-3.172-.661-5.439-1.155-5.439-1.155s-.816 5.1-3.468 4.488c-2.285-.526-9.113-24.377-10.959-30.969a2.294 2.294 0 011.014-2.577l9.378-5.727 2.403.918s4.06-3.138 6.416-3.201 6.437-.675 6.437-.675 4.692.408 5.508 3.876 1.224 25.093 4.284 28.969c3.061 3.879 7.345 9.387 3.469 9.387z"></path><path class="st6" d="M157.619 78.85s0 7.956 5.304 6.732.408-8.568.408-8.568l-5.712 1.836z"></path><path class="st6" d="M172.307 79.666s-1.836 9.384-5.712 7.956 0-9.793 0-9.793l5.712 1.837z"></path><path d="M180.876 57.429s-1.997 4.766-3.589 8.681a534.29 534.29 0 01-10.15-2.018 5.85 5.85 0 01.885-1.563c1.428-1.632.612-2.04.612-2.04-1.224-2.448-.204-5.712-.204-5.712-2.448-6.528 1.224-14.689 1.224-14.689l11.222 17.341z" opacity=".15"></path><path class="st7" d="M170.267 40.088s-3.672 8.16-1.224 14.689c0 0-1.02 3.264.204 5.712 0 0 .816.408-.612 2.04-1.428 1.632-2.652 7.344-1.632 8.568s-1.428 3.468-.816 4.692-1.02 2.856-1.02 2.856 6.12 1.224 7.14 3.06c0 0 1.224-1.428.612-3.06-.612-1.632-.204-2.244.408-3.264s2.448-3.264 2.652-4.284 5.508-13.669 5.508-13.669L179 34.379l-8.733 5.709z"></path><path class="st7" d="M149.05 34.376l-.381.069a2.293 2.293 0 00-1.884 2.273c.015 2.048.13 5.683.633 10.714.816 8.16 3.672 20.401 4.284 21.625a65.24 65.24 0 003.264 6.324c1.836 3.06 2.244 2.04 1.836 3.468a2.148 2.148 0 00.612 2.244s3.672-4.08 7.344-1.836a4.529 4.529 0 00.408-1.836c0-1.02.612-2.04-.408-2.652s.612-3.264-1.02-4.692-1.836-1.224-1.632-2.652a6.082 6.082 0 00-.408-2.856L149.05 34.376z"></path><path class="st5" d="M161.205 7.018s-3.299 8.743-11.383 12.373l-1.32-7.754 12.703-4.619z"></path><ellipse class="st6" cx="165.983" cy="14.179" rx="1.122" ry="2.142"></ellipse></svg> 