<?xml version="1.0" encoding="UTF-8"?> <svg xmlns="http://www.w3.org/2000/svg" viewBox="0 0 50 50"><circle cx="15.361" cy="15.361" r="15.361" opacity=".8" fill="#f2f5fa"></circle><linearGradient id="a" gradientUnits="userSpaceOnUse" x1="3.402" y1="37.565" x2="48.618" y2="21.107"><stop offset="0" stop-color="#192b80"></stop><stop offset="1" stop-color="#482d70"></stop></linearGradient><path d="M28.448 39.331c6.001 0 10.883-4.882 10.883-10.883 0-6.001-4.882-10.883-10.883-10.883s-10.883 4.882-10.883 10.883c0 1.746.416 3.396 1.149 4.86L7.906 44.116a3.424 3.424 0 00-1.01 2.437c0 .921.359 1.786 1.009 2.437a3.435 3.435 0 002.437 1.008c.883 0 1.765-.336 2.437-1.008l10.809-10.809a10.816 10.816 0 004.86 1.15zm0-20.109c5.087 0 9.225 4.139 9.225 9.225 0 5.087-4.139 9.225-9.225 9.225s-9.225-4.138-9.225-9.225c0-5.086 4.138-9.225 9.225-9.225zm-16.84 28.596a1.792 1.792 0 01-2.53 0 1.777 1.777 0 01-.524-1.265c0-.478.186-.927.524-1.265l10.519-10.52a10.967 10.967 0 002.53 2.53l-10.519 10.52zm10.32-19.371a6.528 6.528 0 016.52-6.52.829.829 0 110 1.658 4.868 4.868 0 00-4.863 4.863.829.829 0 11-1.657-.001zM50 27.199v2.555a.829.829 0 01-.527.772l-4.133 1.618a17.404 17.404 0 01-.434 1.612l2.76 3.455a.828.828 0 01.07.932l-1.278 2.213a.828.828 0 01-.842.405l-4.393-.666c-.373.409-.767.802-1.178 1.174l.664 4.378a.83.83 0 01-.405.842l-2.213 1.278a.828.828 0 01-.932-.07l-3.467-2.77c-.529.168-1.068.311-1.612.427l-1.613 4.12a.823.823 0 01-.769.526h-2.555a.83.83 0 01-.772-.527l-1.618-4.133a16.91 16.91 0 01-2.051-.582.827.827 0 11.551-1.563c.733.258 1.495.463 2.262.609.28.053.514.247.617.512l1.576 4.026h1.424l1.572-4.015a.827.827 0 01.62-.513c.768-.143 1.53-.345 2.264-.6a.83.83 0 01.79.135l3.376 2.698 1.233-.712-.647-4.266a.827.827 0 01.28-.753 15.845 15.845 0 001.657-1.651.828.828 0 01.751-.277l4.278.649.712-1.233-2.689-3.366a.83.83 0 01-.134-.793c.258-.733.463-1.494.609-2.262a.83.83 0 01.512-.617l4.026-1.576v-1.424l-4.015-1.572a.827.827 0 01-.513-.62 15.586 15.586 0 00-.6-2.264.83.83 0 01.135-.79l2.698-3.377-.712-1.233-4.266.647a.828.828 0 01-.753-.28 15.749 15.749 0 00-1.651-1.657.828.828 0 01-.277-.751l.649-4.279-1.233-.712-3.366 2.689a.825.825 0 01-.793.134 15.623 15.623 0 00-2.262-.609.83.83 0 01-.617-.512L29.19 8.554h-1.424l-1.572 4.015a.827.827 0 01-.62.513c-.768.143-1.53.345-2.264.6a.828.828 0 01-.79-.135l-3.377-2.698-1.233.712.647 4.266a.827.827 0 01-.28.753 15.749 15.749 0 00-1.657 1.651.828.828 0 01-.751.277l-4.279-.648-.712 1.233 2.689 3.366a.83.83 0 01.134.793 15.533 15.533 0 00-.609 2.263.83.83 0 01-.512.617l-4.026 1.576v1.424l4.015 1.572a.83.83 0 01.513.62c.143.769.345 1.53.6 2.264a.829.829 0 01-1.565.545 17.245 17.245 0 01-.573-2.051l-4.12-1.613a.829.829 0 01-.527-.772v-2.555c0-.341.209-.648.527-.772l4.133-1.618a17.32 17.32 0 01.434-1.612l-2.76-3.455a.828.828 0 01-.07-.932l1.278-2.213a.831.831 0 01.842-.405l4.393.666c.373-.409.767-.802 1.178-1.173l-.664-4.379a.83.83 0 01.405-.842l2.213-1.278a.83.83 0 01.932.07l3.467 2.77a17.142 17.142 0 011.612-.427l1.613-4.12a.829.829 0 01.772-.527h2.555a.83.83 0 01.772.527l1.618 4.133a17.49 17.49 0 011.612.434l3.455-2.76a.828.828 0 01.932-.07l2.213 1.278a.83.83 0 01.405.842l-.666 4.393c.409.373.802.767 1.174 1.178l4.378-.664a.83.83 0 01.842.405l1.278 2.213a.83.83 0 01-.07.932l-2.77 3.467c.168.528.311 1.068.427 1.612l4.12 1.613c.314.123.523.43.523.771z" fill="url(#a)"></path></svg> 