<?xml version="1.0" encoding="UTF-8"?> <svg xmlns="http://www.w3.org/2000/svg" viewBox="0 0 91.65 18.33"><path d="M31.86 13.38v2.11h-8.74v-2.11h3.14V4.95h-3.14V2.84h8.74v2.11h-3.14v8.44h3.14zM17.02 2.84h-2.41l-1.73 10.02h-.03l-2.01-9.29c-.13-.63-.33-.78-.93-.78H8.59c-.58 0-.8.15-.93.78l-2.01 9.29H5.6L3.89 2.84H1.31L3.8 14.87c.1.53.3.65.88.65h1.71c.58 0 .78-.13.88-.68l1.88-8.71h.05l1.88 8.71c.13.55.3.68.88.68h1.68c.6 0 .78-.13.88-.65l2.5-12.03zm1.31 15.49H0V0h18.33v18.33zm30.23-6.08c.01 1.08.08 2.17.23 3.24h2.51c-.08-.68-.15-1.81-.2-3.41-.05-1.61-.65-2.16-1.96-2.41v-.05c1.46-.23 2.08-.93 2.08-3.16 0-1.86-.3-2.54-.8-3.04s-1.03-.55-2.01-.55H40.7V15.5h2.61v-4.92h3.62c.75 0 1.05.05 1.26.25.2.19.35.42.37 1.42zm-5.24-3.74V5h4.14c.58 0 .75.05.85.15.1.1.35.45.35 1.56s-.18 1.46-.38 1.63c-.2.18-.28.18-.85.18l-4.11-.01zm11.67 9.82H36.66V0h18.33v18.33zM77.36 2.84V15.5h6.23c1.78 0 2.76-.25 3.54-.93.78-.68 1.33-2.26 1.33-5.37 0-3.11-.43-4.6-1.33-5.37-.9-.78-1.73-.93-3.54-.93h-6.23v-.06zm8.52 6.33c0 2.71-.23 3.41-.7 3.79-.48.38-.83.38-1.76.38h-3.44V5h3.44c.95 0 1.36.05 1.76.38.4.33.7 1.08.7 3.82v-.03zm5.77 9.16H73.32V0h18.33v18.33zM58.36 4.95V2.84h10.77v4.07h-2.26V4.95H62.5v3.01h3.47v2.03H62.5v3.39h4.47v-2.21h2.29v4.32h-10.9v-2.11h1.71V4.95h-1.71z" fill="#939598"></path></svg> 